<?xml version="1.0" encoding="UTF-8"?>
<svg version="1.1" xmlns="http://www.w3.org/2000/svg" width="512" height="512">
<path d="M0 0 C11.00274705 9.60595003 21.23662439 20.07169505 30.12890625 31.6640625 C31.60270015 33.56407555 33.08172393 35.46004552 34.56640625 37.3515625 C35.52353516 38.59486328 35.52353516 38.59486328 36.5 39.86328125 C37.03753906 40.45753906 37.57507813 41.05179687 38.12890625 41.6640625 C38.78890625 41.6640625 39.44890625 41.6640625 40.12890625 41.6640625 C41.76239495 39.89219808 41.76239495 39.89219808 43.50390625 37.5390625 C65.93262663 8.93141021 94.70901157 -22.27213166 132.87939453 -27.125 C162.10331664 -29.86533739 190.25943812 -22.85743959 213.28466797 -4.34350586 C235.43018326 14.13719751 249.52086083 39.06335026 252.8125 67.828125 C255.03511419 94.77389211 249.08944298 122.50311452 232.12890625 144.1015625 C230.80881479 145.63390396 229.47554043 147.15499385 228.12890625 148.6640625 C227.46632813 149.4684375 226.80375 150.2728125 226.12109375 151.1015625 C209.41877913 170.82385283 183.98656764 184.46188387 158.12890625 186.6640625 C127.4380857 188.48579028 102.16817936 179.97406787 79.12890625 159.6640625 C78.31164062 158.95636719 77.494375 158.24867188 76.65234375 157.51953125 C66.22028733 148.32938631 56.71894956 138.6040622 48.12890625 127.6640625 C46.60906039 125.76743744 45.08827296 123.8715664 43.56640625 121.9765625 C42.41993926 120.53956782 41.27385465 119.10226744 40.12890625 117.6640625 C36.56964509 118.85048289 35.92523175 119.90675598 33.69140625 122.8515625 C10.61356012 152.40297567 -18.02359613 181.20676707 -56.87109375 186.6640625 C-87.2486521 189.1521032 -114.93667342 180.64063001 -138.25 160.96484375 C-159.51136188 142.3017407 -172.43973747 116.93983555 -174.87109375 88.6640625 C-176.59345298 57.78246366 -167.09413295 30.00999981 -146.87109375 6.6640625 C-145.90623047 5.54644531 -145.90623047 5.54644531 -144.921875 4.40625 C-130.76265874 -10.76653272 -111.70264108 -20.17430189 -91.87109375 -25.3359375 C-90.92621094 -25.58214844 -89.98132813 -25.82835937 -89.0078125 -26.08203125 C-55.74154275 -33.06265225 -25.11861144 -21.28545758 0 0 Z M-106.87109375 29.6640625 C-107.5053125 30.11265625 -108.13953125 30.56125 -108.79296875 31.0234375 C-120.23752761 39.94809349 -128.35294616 54.65321832 -130.625 68.91796875 C-132.32296377 87.86508827 -128.77114693 104.52289853 -117.12109375 119.9765625 C-105.53919564 133.54074702 -90.53125463 141.47386384 -72.87109375 143.4765625 C-56.02219849 144.49704971 -41.32670012 136.70722712 -28.85058594 125.91650391 C-18.54314601 116.69794518 -9.52709486 106.7642067 -0.74609375 96.1015625 C-0.15183594 95.38548828 0.44242188 94.66941406 1.0546875 93.93164062 C2.76499243 91.85699922 4.44818211 89.76268821 6.12890625 87.6640625 C6.6609668 87.03387207 7.19302734 86.40368164 7.74121094 85.75439453 C9.3845826 83.7834708 9.3845826 83.7834708 11.12890625 80.6640625 C10.43772655 76.49207691 7.75525693 73.71636401 5.06640625 70.5390625 C4.256875 69.57484375 3.44734375 68.610625 2.61328125 67.6171875 C1.7934375 66.64265625 0.97359375 65.668125 0.12890625 64.6640625 C-1.30983818 62.87339498 -2.74735485 61.08174025 -4.18359375 59.2890625 C-19.72911873 40.33703987 -38.73660524 19.16878654 -64.34765625 15.85546875 C-80.17135219 14.99586664 -94.19275471 20.58473584 -106.87109375 29.6640625 Z M107.12890625 33.6640625 C106.34644531 34.32792969 105.56398438 34.99179688 104.7578125 35.67578125 C93.81376109 45.14895215 84.27465197 56.02497782 75.52734375 67.52734375 C74.0720507 69.4306016 72.58499908 71.3108435 71.04296875 73.14453125 C70.47320312 73.83160156 69.9034375 74.51867187 69.31640625 75.2265625 C68.83558594 75.78472656 68.35476563 76.34289062 67.859375 76.91796875 C66.89217603 78.73825621 66.89217603 78.73825621 67.73828125 81.05859375 C69.28914967 83.96429385 71.06339669 86.2744833 73.19140625 88.7890625 C74.00351562 89.75585938 74.815625 90.72265625 75.65234375 91.71875 C76.87824219 93.17667969 76.87824219 93.17667969 78.12890625 94.6640625 C79.52538161 96.41355022 80.92121934 98.16354709 82.31640625 99.9140625 C96.55177978 117.24408245 114.18127083 137.50630825 137.12890625 142.6640625 C137.79535156 142.81617188 138.46179688 142.96828125 139.1484375 143.125 C154.84222662 145.74548427 171.15322691 139.71083599 183.81640625 130.765625 C197.44566091 120.27867072 206.59118475 105.76440121 209.12890625 88.6640625 C210.83670692 69.74271542 206.30606808 53.62747714 194.56640625 38.5390625 C183.47108719 25.69448142 168.18444047 17.83220389 151.37890625 15.9140625 C134.15689885 14.81615953 119.71214476 22.37583996 107.12890625 33.6640625 Z " fill="#000000" transform="translate(216.87109375,176.3359375)"/>
</svg>
