<svg width="462" height="462" viewBox="0 0 462 462" fill="none" xmlns="http://www.w3.org/2000/svg">
<path opacity="0.85" d="M42.181 170.082L23.9781 183.307C15.6004 189.394 13.7433 201.119 19.83 209.497L33.0552 227.7C39.1419 236.078 50.8676 237.935 59.2452 231.848L77.4481 218.623C85.8257 212.536 87.6829 200.81 81.5962 192.433L68.371 174.23C62.2843 165.852 50.5586 163.995 42.181 170.082Z" fill="#2563EB"/>
<path opacity="0.7" d="M93.9581 132.464L75.7552 145.689C67.3775 151.775 65.5204 163.501 71.6071 171.879L84.8322 190.082C90.919 198.459 102.645 200.316 111.022 194.23L129.225 181.005C137.603 174.918 139.46 163.192 133.373 154.815L120.148 136.612C114.061 128.234 102.336 126.377 93.9581 132.464Z" fill="#2563EB"/>
<path opacity="0.42" d="M197.512 57.227L179.309 70.4522C170.932 76.5389 169.075 88.2646 175.161 96.6422L188.386 114.845C194.473 123.223 206.199 125.08 214.576 118.993L232.779 105.768C241.157 99.6813 243.014 87.9556 236.927 79.578L223.702 61.3751C217.616 52.9975 205.89 51.1403 197.512 57.227Z" fill="#2563EB"/>
<path opacity="0.4" d="M298.559 305.19L280.356 318.415C271.979 324.502 270.122 336.227 276.208 344.605L289.434 362.808C295.52 371.185 307.246 373.043 315.624 366.956L333.826 353.731C342.204 347.644 344.061 335.918 337.975 327.541L324.749 309.338C318.663 300.96 306.937 299.103 298.559 305.19Z" fill="#2563EB"/>
<path opacity="0.24" d="M249.289 19.6088L231.086 32.8339C222.709 38.9206 220.852 50.6463 226.938 59.024L240.164 77.2269C246.25 85.6045 257.976 87.4617 266.354 81.375L284.556 68.1498C292.934 62.0631 294.791 50.3374 288.705 41.9597L275.479 23.7569C269.393 15.3792 257.667 13.522 249.289 19.6088Z" fill="#2563EB"/>
<path opacity="0.8" d="M80.387 222.668L62.1841 235.893C53.8065 241.98 51.9493 253.705 58.036 262.083L71.2612 280.286C77.3479 288.664 89.0736 290.521 97.4512 284.434L115.654 271.209C124.032 265.122 125.889 253.397 119.802 245.019L106.577 226.816C100.49 218.438 88.7647 216.581 80.387 222.668Z" fill="#2563EB"/>
<path opacity="0.8" d="M132.164 185.05L113.961 198.275C105.584 204.362 103.726 216.087 109.813 224.465L123.038 242.668C129.125 251.045 140.851 252.903 149.228 246.816L167.431 233.591C175.809 227.504 177.666 215.778 171.579 207.401L158.354 189.198C152.267 180.82 140.542 178.963 132.164 185.05Z" fill="#2563EB"/>
<path opacity="0.53" d="M235.718 109.813L217.515 123.038C209.138 129.125 207.281 140.851 213.367 149.228L226.592 167.431C232.679 175.809 244.405 177.666 252.783 171.579L270.985 158.354C279.363 152.267 281.22 140.542 275.134 132.164L261.908 113.961C255.822 105.584 244.096 103.726 235.718 109.813Z" fill="#2563EB"/>
<path opacity="0.32" d="M288.304 71.6071L270.102 84.8323C261.724 90.919 259.867 102.645 265.953 111.022L279.179 129.225C285.265 137.603 296.991 139.46 305.369 133.373L323.572 120.148C331.949 114.061 333.806 102.336 327.72 93.9581L314.494 75.7552C308.408 67.3775 296.682 65.5204 288.304 71.6071Z" fill="#2563EB"/>
<path opacity="0.6" d="M117.784 275.842L99.5812 289.067C91.2035 295.154 89.3464 306.879 95.4331 315.257L108.658 333.46C114.745 341.838 126.471 343.695 134.848 337.608L153.051 324.383C161.429 318.296 163.286 306.57 157.199 298.193L143.974 279.99C137.887 271.612 126.162 269.755 117.784 275.842Z" fill="#2563EB"/>
<path d="M240.855 245.757C249.121 239.751 250.953 228.182 244.948 219.916C238.942 211.65 227.373 209.818 219.107 215.823C210.841 221.829 209.009 233.398 215.014 241.664C221.02 249.93 232.589 251.762 240.855 245.757Z" fill="#2563EB"/>
<path opacity="0.67" d="M273.924 162.399L255.721 175.624C247.344 181.711 245.487 193.437 251.573 201.814L264.799 220.017C270.885 228.395 282.611 230.252 290.989 224.165L309.191 210.94C317.569 204.854 319.426 193.128 313.34 184.75L300.114 166.547C294.028 158.17 282.302 156.313 273.924 162.399Z" fill="#2563EB"/>
<path opacity="0.58" d="M145.735 94.8453L127.532 108.07C119.155 114.157 117.297 125.883 123.384 134.26L136.609 152.463C142.696 160.841 154.422 162.698 162.799 156.611L181.002 143.386C189.38 137.3 191.237 125.574 185.15 117.196L171.925 98.9934C165.838 90.6157 154.113 88.7586 145.735 94.8453Z" fill="#2563EB"/>
<path opacity="0.4" d="M326.51 124.193L308.308 137.418C299.93 143.505 298.073 155.231 304.159 163.608L317.385 181.811C323.471 190.189 335.197 192.046 343.575 185.959L361.778 172.734C370.155 166.647 372.012 154.922 365.926 146.544L352.7 128.341C346.614 119.964 334.888 118.106 326.51 124.193Z" fill="#2563EB"/>
<path opacity="0.36" d="M156.799 327.84L138.596 341.065C130.219 347.152 128.361 358.878 134.448 367.255L147.673 385.458C153.76 393.836 165.486 395.693 173.863 389.606L192.066 376.381C200.444 370.294 202.301 358.569 196.214 350.191L182.989 331.988C176.902 323.611 165.177 321.753 156.799 327.84Z" fill="#2563EB"/>
<path opacity="0.5" d="M208.576 290.222L190.373 303.447C181.996 309.534 180.139 321.259 186.225 329.637L199.45 347.84C205.537 356.218 217.263 358.075 225.64 351.988L243.843 338.763C252.221 332.676 254.078 320.95 247.991 312.573L234.766 294.37C228.68 285.992 216.954 284.135 208.576 290.222Z" fill="#2563EB"/>
<path opacity="0.56" d="M183.941 147.431L165.738 160.657C157.361 166.743 155.504 178.469 161.59 186.847L174.815 205.049C180.902 213.427 192.628 215.284 201.005 209.198L219.208 195.972C227.586 189.886 229.443 178.16 223.356 169.782L210.131 151.579C204.045 143.202 192.319 141.345 183.941 147.431Z" fill="#2563EB"/>
<path opacity="0.8" d="M312.13 214.985L293.927 228.211C285.55 234.297 283.693 246.023 289.779 254.401L303.005 272.603C309.091 280.981 320.817 282.838 329.195 276.752L347.397 263.526C355.775 257.44 357.632 245.714 351.546 237.336L338.32 219.133C332.234 210.756 320.508 208.899 312.13 214.985Z" fill="#2563EB"/>
<path opacity="0.6" d="M364.716 176.779L346.514 190.004C338.136 196.091 336.279 207.817 342.366 216.195L355.591 234.397C361.677 242.775 373.403 244.632 381.781 238.545L399.984 225.32C408.361 219.234 410.218 207.508 404.132 199.13L390.907 180.927C384.82 172.55 373.094 170.693 364.716 176.779Z" fill="#2563EB"/>
<path opacity="0.21" d="M195.005 380.426L176.802 393.651C168.425 399.738 166.567 411.464 172.654 419.841L185.879 438.044C191.966 446.422 203.692 448.279 212.069 442.192L230.272 428.967C238.65 422.881 240.507 411.155 234.42 402.777L221.195 384.574C215.108 376.197 203.383 374.34 195.005 380.426Z" fill="#2563EB"/>
<path opacity="0.32" d="M246.782 342.808L228.579 356.033C220.202 362.12 218.345 373.846 224.431 382.223L237.656 400.426C243.743 408.804 255.469 410.661 263.846 404.574L282.049 391.349C290.427 385.262 292.284 373.537 286.197 365.159L272.972 346.956C266.886 338.578 255.16 336.721 246.782 342.808Z" fill="#2563EB"/>
<path opacity="0.7" d="M350.336 267.571L332.134 280.797C323.756 286.883 321.899 298.609 327.985 306.987L341.211 325.19C347.297 333.567 359.023 335.424 367.401 329.338L385.604 316.112C393.981 310.026 395.838 298.3 389.752 289.922L376.526 271.72C370.44 263.342 358.714 261.485 350.336 267.571Z" fill="#2563EB"/>
<path opacity="0.7" d="M260.353 252.604L242.15 265.829C233.773 271.915 231.916 283.641 238.002 292.019L251.227 310.222C257.314 318.599 269.04 320.457 277.418 314.37L295.62 301.145C303.998 295.058 305.855 283.332 299.769 274.955L286.543 256.752C280.457 248.374 268.731 246.517 260.353 252.604Z" fill="#2563EB"/>
<path opacity="0.81" d="M402.114 229.953L383.911 243.178C375.533 249.265 373.676 260.991 379.763 269.368L392.988 287.571C399.074 295.949 410.8 297.806 419.178 291.719L437.381 278.494C445.758 272.408 447.615 260.682 441.529 252.304L428.304 234.101C422.217 225.724 410.491 223.866 402.114 229.953Z" fill="#2563EB"/>
<path opacity="0.59" d="M170.37 237.636L152.167 250.861C143.79 256.948 141.932 268.673 148.019 277.051L161.244 295.254C167.331 303.631 179.057 305.489 187.434 299.402L205.637 286.177C214.015 280.09 215.872 268.364 209.785 259.987L196.56 241.784C190.473 233.406 178.748 231.549 170.37 237.636Z" fill="#2563EB"/>
</svg>
