<?xml version="1.0" standalone="no"?>
<!DOCTYPE svg PUBLIC "-//W3C//DTD SVG 1.1//EN" "http://www.w3.org/Graphics/SVG/1.1/DTD/svg11.dtd" >
<svg xmlns="http://www.w3.org/2000/svg">
  <metadata>Created by iconfont</metadata>
  <defs>
  <font id="iconfont" horiz-adv-x="1024">
    <font-face
      font-family="iconfont"
      font-weight="400"
      font-stretch="normal"
      units-per-em="1024"
      ascent="896"
      descent="-128"
    />
      <missing-glyph />
      
      <glyph glyph-name="line-public" unicode="&#59219;" d="M639.829333 21.76l0.042667 135.850667a93.568 93.568 0 0 1-93.568 93.568H242.133333a93.610667 93.610667 0 0 1-93.610666-93.568v-135.850667a42.24 42.24 0 0 0-84.522667 0v135.893333a178.133333 178.133333 0 0 0 178.133333 178.048h304.213334a178.090667 178.090667 0 0 0 178.048-178.090666v-135.850667a42.24 42.24 0 1 0-84.565334 0z m235.648 0v135.850667a93.568 93.568 0 0 1-93.568 93.568 42.24 42.24 0 0 0 0 84.48 178.090667 178.090667 0 0 0 178.090667-178.048v-135.850667a42.282667 42.282667 0 0 0-84.522667 0z m-384.853333 588.629333a93.568 93.568 0 1 1-187.178667 0 93.568 93.568 0 0 1 187.136 0z m178.048 0a93.44 93.44 0 0 1-37.888 75.221334 42.282667 42.282667 0 0 0 50.346667 67.882666 177.92 177.92 0 0 0 72.106666-143.104 177.962667 177.962667 0 0 0-72.106666-143.104 42.282667 42.282667 0 0 0-50.346667 67.84 93.44 93.44 0 0 1 37.888 75.264z m-93.525333 0a178.090667 178.090667 0 1 0-356.224 0 178.090667 178.090667 0 0 0 356.224 0z"  horiz-adv-x="1024" />
      
      <glyph glyph-name="line-lock" unicode="&#59220;" d="M774.058667 441.984a34.688 34.688 0 0 1-33.877334 34.986667H283.776a34.645333 34.645333 0 0 1-33.834667-34.986667v-386.432c0-19.754667 15.957333-34.986667 33.834667-34.986667h456.405333a34.688 34.688 0 0 1 33.877334 34.986667V442.026667z m-304.341334-235.477333v101.418666a42.24 42.24 0 0 0 84.522667 0v-101.418666a42.24 42.24 0 0 0-84.48 0zM512 747.477333c-101.248 0-183.978667-81.962667-185.856-185.984h371.754667C695.978667 665.514667 613.290667 747.477333 512 747.477333z m346.624-691.925333c0-65.194667-52.565333-119.552-118.4-119.552H283.776c-65.834667 0-118.357333 54.357333-118.357333 119.552V442.026667c0 50.389333 31.445333 94.165333 76.074666 111.488v4.437333C241.493333 709.034667 361.6 832 512 832s270.464-122.965333 270.464-274.090667v-4.394666a119.893333 119.893333 0 0 0 76.117333-111.530667v-386.432z"  horiz-adv-x="1024" />
      
      <glyph glyph-name="line-web-dev" unicode="&#59218;" d="M741.248 594.474667V525.226667a38.485333 38.485333 0 1 1 76.970667 0V594.474667A130.858667 130.858667 0 0 1 687.36 725.333333H194.858667A130.858667 130.858667 0 0 1 64 594.474667V153.6a130.858667 130.858667 0 0 1 130.858667-130.858667h261.632a38.485333 38.485333 0 0 1 0 76.970667H353.152V648.405333h334.208c29.781333 0 53.888-24.149333 53.888-53.930666zM279.893333 648.362667v-548.693334H194.858667A53.888 53.888 0 0 0 140.970667 153.6V594.474667c0 29.781333 24.106667 53.888 53.888 53.888h84.992z m538.282667-234.453334a38.485333 38.485333 0 0 1-51.498667 2.645334l-2.901333-2.645334-195.925333-195.84a38.485333 38.485333 0 0 1-11.264-27.221333v-130.645333c0-21.248 17.237333-38.485333 38.485333-38.485334h130.56c10.24 0 20.053333 4.053333 27.264 11.264l195.84 195.925334a38.485333 38.485333 0 0 1 0 54.4l-130.56 130.602666z m-184.661333-315.221333v76.202667l157.44 157.44 76.202666-76.202667-157.44-157.44h-76.202666z"  horiz-adv-x="1024" />
      
      <glyph glyph-name="line-lightbulb-03" unicode="&#59217;" d="M571.733333 193.749333a299.946667 299.946667 0 0 0-119.466666 0v-116.906666c0-4.736 3.84-8.533333 8.533333-8.533334h102.4a8.533333 8.533333 0 0 1 8.533333 8.533334v116.906666zM725.333333 486.4a213.333333 213.333333 0 1 1-426.666666 0 213.333333 213.333333 0 0 1 426.666666 0z m85.333334 0a298.496 298.496 0 0 0-153.6-261.034667V76.8a93.866667 93.866667 0 0 0-93.866667-93.866667h-102.4a93.866667 93.866667 0 0 0-93.866667 93.866667v148.565333A298.666667 298.666667 0 1 0 810.666667 486.4z"  horiz-adv-x="1024" />
      
      <glyph glyph-name="line-code-01" unicode="&#59216;" d="M571.989333 668.970667a42.666667 42.666667 0 0 0 32.981334-50.56l-102.4-486.4a42.666667 42.666667 0 0 0-83.541334 17.578666l102.4 486.4a42.666667 42.666667 0 0 0 50.56 32.981334z m165.845334-114.005334a42.666667 42.666667 0 0 0 60.330666 0l153.6-153.6a42.666667 42.666667 0 0 0 0-60.330666l-153.6-153.6a42.666667 42.666667 0 0 0-60.330666 60.330666l123.434666 123.434667-123.434666 123.434667a42.666667 42.666667 0 0 0 0 60.330666z m-451.669334 0a42.666667 42.666667 0 0 0 0-60.330666L162.730667 371.2l123.434666-123.434667a42.666667 42.666667 0 1 0-60.330666-60.330666l-153.6 153.6a42.666667 42.666667 0 0 0 0 60.330666l153.6 153.6a42.666667 42.666667 0 0 0 60.330666 0z"  horiz-adv-x="1024" />
      
      <glyph glyph-name="line-arrow-curve-left-right" unicode="&#59207;" d="M673.8432 534.8352a42.7008 42.7008 0 0 1-60.3648-60.3136l153.9072-153.9584H324.3008a128 128 0 0 0-128 128V716.8a42.6496 42.6496 0 0 1-85.3504 0V448.512a213.3504 213.3504 0 0 1 213.3504-213.2992h443.0848l-153.9072-153.9072a42.7008 42.7008 0 0 1 60.416-60.3136l226.6624 226.7136a42.6496 42.6496 0 0 1 0 60.3136l-226.7136 226.7648z"  horiz-adv-x="1024" />
      
      <glyph glyph-name="line-free" unicode="&#59206;" d="M415.146667 383.914667a38.826667 38.826667 0 0 1-38.869334 38.826666 38.442667 38.442667 0 0 1-38.656-38.741333v-271.530667A155.306667 155.306667 0 0 1 492.8-42.666667a155.264 155.264 0 0 1 155.136 155.136v28.714667a38.826667 38.826667 0 0 1-77.653333 0v-28.8a77.653333 77.653333 0 0 0-77.568-77.568 77.653333 77.653333 0 0 0-77.568 77.568v271.530667zM512 209.365333h271.530667A155.477333 155.477333 0 0 1 938.666667 364.672a155.306667 155.306667 0 0 1-155.136 155.136h-28.714667a38.826667 38.826667 0 1 1 0-77.653333h28.714667a77.653333 77.653333 0 0 0 77.568-77.568 77.653333 77.653333 0 0 0-77.568-77.568H512a38.826667 38.826667 0 1 1 0-77.653334z m0 271.530667a38.826667 38.826667 0 0 1 38.826667 38.826667 38.570667 38.570667 0 0 1-38.826667 38.656H240.469333A155.306667 155.306667 0 0 1 85.333333 403.2a155.306667 155.306667 0 0 1 155.136-155.136h28.714667a38.826667 38.826667 0 1 1 0 77.653333h-28.714667a77.653333 77.653333 0 0 0-77.568 77.568A77.653333 77.653333 0 0 0 240.469333 480.853333H512zM608.981333 384c0-21.418667 17.408-38.826667 38.826667-38.826667a38.656 38.656 0 0 1 38.656 38.826667V655.530667A155.306667 155.306667 0 0 1 531.328 810.666667a155.264 155.264 0 0 1-155.136-155.136v-28.714667a38.826667 38.826667 0 0 1 77.653333 0v28.714667a77.653333 77.653333 0 0 0 77.568 77.568 77.653333 77.653333 0 0 0 77.568-77.568V384z"  horiz-adv-x="1024" />
      
      <glyph glyph-name="fill-x-circle-contained" unicode="&#59190;" d="M512-42.666667c235.648 0 426.666667 191.018667 426.666667 426.666667S747.648 810.666667 512 810.666667 85.333333 619.648 85.333333 384s191.018667-426.666667 426.666667-426.666667z m-165.973333 260.693334a42.666667 42.666667 0 0 0 0 60.373333L451.712 384 346.026667 489.6a42.666667 42.666667 0 0 0 60.330666 60.330667L512 444.330667l105.6 105.6a42.666667 42.666667 0 1 0 60.330667-60.330667L572.330667 384l105.6-105.6a42.666667 42.666667 0 0 0-60.330667-60.330667L512 323.669333 406.4 218.026667a42.666667 42.666667 0 0 0-60.330667 0z"  horiz-adv-x="1024" />
      
      <glyph glyph-name="line-pdf" unicode="&#59202;" d="M856.618667-42.666667c-84.565333 0-160.426667 147.114667-200.32 242.773334-67.114667 28.373333-141.141333 54.869333-213.034667 72.021333-62.890667-42.026667-169.898667-105.002667-252.117333-105.002667-50.986667 0-87.722667 25.984-101.205334 71.253334-10.325333 37.248-1.578667 62.976 9.514667 76.885333 21.674667 30.037333 66.346667 45.312 133.205333 45.312 54.186667 0 122.88-9.642667 199.509334-28.416a1279.701333 1279.701333 0 0 1 144.298666 120.576c-19.84 95.36-41.472 249.941333 13.482667 321.28 27.221333 33.962667 68.693333 45.226667 118.912 29.952 54.997333-16.042667 75.861333-50.090667 82.218667-76.885333 23.253333-93.013333-82.218667-218.368-153.301334-292.053334 15.872-63.744 36.736-130.986667 62.122667-192.64 101.973333-46.08 223.317333-114.944 237.056-189.952 5.546667-25.984-2.389333-50.090667-23.253333-71.253333-17.962667-15.018667-36.992-23.850667-57.088-23.850667z m-76.032 162.133334c18.602667-41.898667 36.352-61.738667 45.653333-61.738667 1.493333 0 3.498667 0.64 6.4 3.2 3.456 3.84 3.456 6.442667 2.901333 8.789333-1.92 11.050667-17.664 29.141333-54.954666 49.792zM243.584 289.450667c-29.738667 0-37.930667-7.296-40.405333-10.666667-0.725333-1.109333-2.858667-4.394667-0.725334-12.885333 1.792-7.296 6.741333-15.061333 22.186667-15.061334 19.285333 0 47.274667 11.008 79.786667 30.848a284.416 284.416 0 0 1-60.842667 7.765334z m291.285333 37.461333c18.048-5.162667 35.84-11.221333 53.333334-18.133333a490.154667 490.154667 0 0 0-15.488 50.133333 1217.706667 1217.706667 0 0 0-37.845334-32zM660.48 689.066667a18.602667 18.602667 0 0 1-14.762667-6.826667c-11.733333-15.018667-13.098667-52.864-4.010666-101.290667 34.56 37.461333 53.248 71.936 48.64 90.368-0.682667 2.688-2.688 10.922667-18.773334 15.701334a37.333333 37.333333 0 0 1-11.093333 2.048z"  horiz-adv-x="1024" />
      
      <glyph glyph-name="line-deepresearch-02" unicode="&#59205;" d="M594.56 788.565333l340.992-195.114666c61.013333-34.944 61.013333-128 0-162.901334l-340.992-195.114666a165.12 165.12 0 0 0-165.12 0L298.666667 310.272V128q0-17.664 12.501333-30.165333T341.333333 85.333333h341.333334q17.664 0 30.165333 12.501334T725.333333 128v128a42.666667 42.666667 0 1 0 85.333334 0v-128q0-53.034667-37.504-90.496Q735.701333 0 682.666667 0H341.333333q-53.034667 0-90.496 37.504Q213.333333 74.965333 213.333333 128v231.082667l-124.885333 71.466666c-61.013333 34.944-61.013333 128 0 162.901334l340.992 195.114666a165.12 165.12 0 0 0 165.12 0z m-41.301333-81.493333q-41.258667 23.637333-82.517334 0L129.706667 512l340.992-195.114667q41.258667-23.594667 82.517333 0L894.293333 512l-340.992 195.114667z"  horiz-adv-x="1024" />
      
      <glyph glyph-name="fill-check-contained" unicode="&#59215;" d="M512-42.666667C276.352-42.666667 85.333333 148.352 85.333333 384S276.352 810.666667 512 810.666667s426.666667-191.018667 426.666667-426.666667-191.018667-426.666667-426.666667-426.666667z m192 474.837334a42.666667 42.666667 0 1 1-60.373333 60.288l-200.96-181.333334L384 371.541333a42.666667 42.666667 0 1 1-60.330667-60.330666l88.832-90.496a42.666667 42.666667 0 0 1 60.330667 0l231.168 211.498666z"  horiz-adv-x="1024" />
      
      <glyph glyph-name="line-diamond" unicode="&#59214;" d="M102.4 572.501333h107.093333L298.538667 689.92h87.637333L340.864 572.501333h91.434667l45.354666 117.418667h76.373334l44.032-117.418667h91.136L645.12 689.92h83.968l87.04-117.418667h106.24l-137.557333 185.514667a42.666667 42.666667 0 0 1-34.261334 17.237333H277.376a42.666667 42.666667 0 0 1-34.005333-16.853333L102.4 572.501333z m9.6-146.176l367.914667-419.029333a42.666667 42.666667 0 0 1 64.128 0L912.256 426.666667H798.72l-181.546667-206.762667L684.8 426.666667h-89.770667l-82.645333-252.8-81.066667 252.458666-89.728 0.213334 67.029334-208.64-183.04 208.426666h-113.493334zM68.394667 527.744a42.666667 42.666667 0 0 1 1.92-53.930667l118.016-134.4 112.085333 1.621334-103.765333 118.229333h134.4l38.784-120.704h89.6l-38.741334 120.746667h184.96l-39.466666-120.746667h89.770666l39.466667 120.746667h131.925333l-105.088-119.722667 114.005334 0.512 117.376 133.717333a42.666667 42.666667 0 0 1 2.218666 53.546667l-66.645333 89.898667h-106.24l53.888-72.661334h-137.216l-27.264 72.661334h-91.136l27.264-72.661334H421.546667l28.032 72.661334H358.144l-28.074667-72.661334H188.330667l55.125333 72.661334h-107.093333L68.352 527.786667z"  horiz-adv-x="1024" />
      
      <glyph glyph-name="line-stop" unicode="&#59208;" d="M853.333333 384a341.333333 341.333333 0 1 1-682.666666 0 341.333333 341.333333 0 0 1 682.666666 0zM512 810.666667c235.648 0 426.666667-191.018667 426.666667-426.666667s-191.018667-426.666667-426.666667-426.666667S85.333333 148.352 85.333333 384 276.352 810.666667 512 810.666667z m174.165333-252.501334a42.666667 42.666667 0 0 0 0-60.330666l-288-288a42.666667 42.666667 0 0 0-60.330666 60.330666l288 288a42.666667 42.666667 0 0 0 60.330666 0z"  horiz-adv-x="1024" />
      
      <glyph glyph-name="line-alert-circle" unicode="&#59209;" d="M512 725.333333a341.333333 341.333333 0 1 1 0-682.666666 341.333333 341.333333 0 0 1 0 682.666666zM85.333333 384C85.333333 619.648 276.352 810.666667 512 810.666667s426.666667-191.018667 426.666667-426.666667-191.018667-426.666667-426.666667-426.666667S85.333333 148.352 85.333333 384z m426.666667 234.666667a42.666667 42.666667 0 0 0 42.666667-42.666667V384a42.666667 42.666667 0 1 0-85.333334 0V576a42.666667 42.666667 0 0 0 42.666667 42.666667z m0-334.293334a42.666667 42.666667 0 0 0 42.666667-42.666666v-1.706667a42.666667 42.666667 0 1 0-85.333334 0v1.706667a42.666667 42.666667 0 0 0 42.666667 42.666666z"  horiz-adv-x="1024" />
      
      <glyph glyph-name="line-tool-01" unicode="&#59210;" d="M866.048 389.034667q-102.314667-101.930667-234.88-65.322667L330.666667 1.109333q-1.024-1.109333-2.090667-2.133333-41.685333-41.386667-100.352-41.642667-59.136-0.256-101.034667 41.429334Q85.333333 40.533333 85.333333 99.669333q0 59.178667 41.856 100.906667l0.853334 0.810667 0.426666 0.426666 321.706667 302.378667q-36.736 132.224 65.621333 234.24Q597.333333 819.626667 712.277333 809.728q44.842667-3.84 61.312-48.597333 13.226667-36.181333-14.08-63.36l-69.376-69.12 66.474667-66.432 67.626667 67.584q27.178667 27.050667 63.232 13.952 46.634667-16.938667 50.261333-58.752 9.941333-114.645333-71.68-195.968z m-60.202667 60.458666q38.016 37.930667 45.653334 86.912l-64.682667-64.725333a42.666667 42.666667 0 0 0-60.373333 0L599.552 598.613333a42.666667 42.666667 0 0 0 0 60.330667l0.085333 0.085333 64.981334 64.725334Q614.570667 716.373333 576 677.973333q-73.898667-73.642667-36.949333-171.434666a42.666667 42.666667 0 0 0-12.458667-47.786667q-3.413333-2.858667-6.4-5.802667l-0.725333-0.682666-332.202667-312.277334-0.170667-0.170666q-16.469333-16.64-16.469333-40.149334 0-23.722667 16.768-40.448 40.234667-40.106667 80.896 0.213334l310.784 333.525333 1.024 1.109333q2.474667 2.432 5.077333 5.632a42.666667 42.666667 0 0 0 48.085334 12.970667q98.432-36.992 172.544 36.821333zM127.274667 200.661333l0.64 0.64-0.64-0.64z"  horiz-adv-x="1024" />
      
      <glyph glyph-name="line-help-circle" unicode="&#59211;" d="M512 725.333333a341.333333 341.333333 0 1 1 0-682.666666 341.333333 341.333333 0 0 1 0 682.666666zM85.333333 384C85.333333 619.648 276.352 810.666667 512 810.666667s426.666667-191.018667 426.666667-426.666667-191.018667-426.666667-426.666667-426.666667S85.333333 148.352 85.333333 384z m426.666667 173.354667c-28.714667 0-53.333333-23.936-53.333333-55.168a42.666667 42.666667 0 1 0-85.333334 0c0 76.8 61.354667 140.501333 138.666667 140.501333 77.354667 0 138.666667-63.658667 138.666667-140.501333A140.501333 140.501333 0 0 0 554.666667 368.469333l-0.042667-29.312a42.666667 42.666667 0 1 0-85.333333 0v46.165334l0.042666 19.072a42.666667 42.666667 0 0 0 42.666667 42.666666c28.714667 0 53.333333 23.893333 53.333333 55.125334S540.714667 557.354667 512 557.354667z m-0.042667-322.688a42.666667 42.666667 0 0 0 42.666667-42.666667v-1.706667a42.666667 42.666667 0 0 0-85.333333 0v1.706667a42.666667 42.666667 0 0 0 42.666666 42.666667z"  horiz-adv-x="1024" />
      
      <glyph glyph-name="line-x-circle-contained" unicode="&#59212;" d="M512 725.333333a341.333333 341.333333 0 1 1 0-682.666666 341.333333 341.333333 0 0 1 0 682.666666zM85.333333 384C85.333333 619.648 276.352 810.666667 512 810.666667s426.666667-191.018667 426.666667-426.666667-191.018667-426.666667-426.666667-426.666667S85.333333 148.352 85.333333 384z m260.693334 165.973333a42.666667 42.666667 0 0 0 60.373333 0L512 444.288l105.6 105.6a42.666667 42.666667 0 1 0 60.330667-60.330667L572.330667 384l105.6-105.6a42.666667 42.666667 0 0 0-60.330667-60.330667L512 323.669333 406.4 218.026667a42.666667 42.666667 0 0 0-60.330667 60.330666L451.669333 384 346.026667 489.6a42.666667 42.666667 0 0 0 0 60.330667z"  horiz-adv-x="1024" />
      
      <glyph glyph-name="line-table-01" unicode="&#59213;" d="M752 725.333333H272A101.333333 101.333333 0 0 1 170.666667 624v-480A101.333333 101.333333 0 0 1 272 42.666667h480A101.333333 101.333333 0 0 1 853.333333 144V624A101.333333 101.333333 0 0 1 752 725.333333zM272 810.666667h480A186.666667 186.666667 0 0 0 938.666667 624v-480A186.666667 186.666667 0 0 0 752-42.666667H272A186.666667 186.666667 0 0 0 85.333333 144V624A186.666667 186.666667 0 0 0 272 810.666667zM320 618.666667h384a42.666667 42.666667 0 1 0 0-85.333334h-384a42.666667 42.666667 0 1 0 0 85.333334z m0-144h384a42.666667 42.666667 0 1 0 0-85.333334h-384a42.666667 42.666667 0 1 0 0 85.333334z"  horiz-adv-x="1024" />
      
      <glyph glyph-name="line-phone-01" unicode="&#59204;" d="M128 106.666667v554.666666a170.666667 170.666667 0 0 0 170.666667 170.666667h426.666666a170.666667 170.666667 0 0 0 170.666667-170.666667v-554.666666a170.666667 170.666667 0 0 0-170.666667-170.666667H298.666667a170.666667 170.666667 0 0 0-170.666667 170.666667z m85.333333 0q0-85.333333 85.333334-85.333334h426.666666q85.333333 0 85.333334 85.333334v554.666666q0 85.333333-85.333334 85.333334H298.666667q-85.333333 0-85.333334-85.333334v-554.666666zM597.333333 213.333333q0-4.181333-0.426666-8.362666t-1.194667-8.277334q-0.853333-4.138667-2.048-8.106666-1.237333-4.053333-2.816-7.893334-1.621333-3.882667-3.584-7.594666-1.962667-3.669333-4.309333-7.168-2.346667-3.498667-4.992-6.741334-2.645333-3.242667-5.632-6.186666-2.986667-2.986667-6.186667-5.632-3.242667-2.645333-6.741333-4.992-3.498667-2.346667-7.168-4.266667-3.712-2.005333-7.594667-3.626667-3.84-1.578667-7.850667-2.816-4.010667-1.194667-8.106666-2.048-4.138667-0.810667-8.32-1.194666-4.181333-0.426667-8.362667-0.426667t-8.362667 0.426667q-4.181333 0.426667-8.277333 1.194666-4.138667 0.853333-8.106667 2.048-4.053333 1.237333-7.893333 2.816-3.882667 1.621333-7.594667 3.584-3.669333 1.962667-7.168 4.309334-3.498667 2.346667-6.741333 4.992-3.242667 2.645333-6.186667 5.632-2.986667 2.986667-5.632 6.186666-2.645333 3.242667-4.992 6.741334-2.346667 3.498667-4.266666 7.168-2.005333 3.712-3.626667 7.594666-1.578667 3.84-2.816 7.850667-1.194667 4.010667-2.048 8.106667-0.810667 4.138667-1.194667 8.32Q426.666667 209.152 426.666667 213.333333t0.426666 8.362667q0.426667 4.181333 1.194667 8.277333 0.853333 4.138667 2.048 8.106667 1.237333 4.053333 2.816 7.893333 1.621333 3.882667 3.584 7.594667 1.962667 3.669333 4.309333 7.168 2.346667 3.498667 4.992 6.741333 2.645333 3.242667 5.632 6.186667 2.986667 2.986667 6.186667 5.632 3.242667 2.645333 6.741333 4.992 3.498667 2.346667 7.168 4.266667 3.712 2.005333 7.594667 3.626666 3.84 1.578667 7.850667 2.816 4.010667 1.194667 8.106666 2.048 4.138667 0.810667 8.32 1.194667 4.181333 0.426667 8.362667 0.426667t8.362667-0.426667q4.181333-0.426667 8.277333-1.194667 4.138667-0.853333 8.106667-2.048 4.053333-1.237333 7.893333-2.816 3.882667-1.621333 7.594667-3.584 3.669333-1.962667 7.168-4.309333 3.498667-2.346667 6.741333-4.992 3.242667-2.645333 6.186667-5.632 2.986667-2.986667 5.632-6.186667 2.645333-3.242667 4.992-6.741333 2.346667-3.498667 4.266666-7.168 2.005333-3.712 3.626667-7.594667 1.578667-3.84 2.816-7.850666 1.194667-4.010667 2.048-8.106667 0.810667-4.138667 1.194667-8.32 0.426667-4.181333 0.426666-8.362667z"  horiz-adv-x="1024" />
      
      <glyph glyph-name="LowerSolidTriangle1" unicode="&#59203;" d="M627.498667 396.501333l-85.333334-85.333333a42.666667 42.666667 0 0 0-60.330666 0l-85.333334 85.333333A42.666667 42.666667 0 0 0 426.666667 469.333333h170.666666a42.666667 42.666667 0 0 0 30.165334-72.832z"  horiz-adv-x="1024" />
      
      <glyph glyph-name="line-deepresearch-unknow" unicode="&#59201;" d="M106.666667 138.965333a42.666667 42.666667 0 0 1 42.666666-42.666666h149.034667q64.256-87.850667 173.482667-117.12 128-34.304 242.816 32 114.773333 66.261333 149.077333 194.261333 34.346667 128.042667-31.957333 242.858667-55.637333 96.341333-154.752 135.978666 24.746667 44.8 11.392 94.677334-13.738667 51.2-59.648 77.696l-73.728 42.581333q-45.909333 26.496-97.109334 12.8-51.2-13.738667-77.738666-59.648l-36.693334-63.530667-36.693333-63.530666L376.96 576l38.570667 66.858667 38.613333 66.858666A42.666667 42.666667 0 0 0 512.426667 725.333333l73.728-42.581333a42.666667 42.666667 0 0 0 15.616-58.282667l-44.842667-77.653333-32.426667-56.149333 70.912-47.914667 38.4 66.56q80.384-27.946667 124.16-103.68 48.554667-84.181333 23.424-178.090667-25.173333-93.866667-109.354666-142.506666-84.181333-48.597333-178.090667-23.424-42.282667 11.349333-75.434667 34.688H490.666667a42.666667 42.666667 0 1 1 0 85.333333h-341.333334a42.666667 42.666667 0 0 1-42.666666-42.666667zM261.504 546.773333q-26.538667-45.909333-12.8-97.152 13.738667-51.2 59.648-77.696l73.728-42.581333q45.909333-26.496 97.109333-12.8 51.2 13.738667 77.738667 59.648l38.4 66.56 38.442667 66.56-76.885334 37.461333-32.426666-56.106666-41.429334-71.808a42.666667 42.666667 0 0 0-58.282666-15.616l-73.728 42.581333a42.666667 42.666667 0 0 0-15.616 58.282667L376.917333 576l38.570667 66.858667-71.978667 45.994666-36.693333-63.530666L261.546667 546.773333z"  horiz-adv-x="1024" />
      
      <glyph glyph-name="close-4" unicode="&#59200;" d="M212.48 640c0-12.288 5.1712-23.9616 14.2848-32.256L450.5088 384l-223.744-223.744a43.52 43.52 0 1 1 61.44-61.4912L512 322.5088l223.744-223.744a43.52 43.52 0 1 1 61.5424 61.44L573.44 384l223.744 223.744a43.52 43.52 0 1 1-61.44 61.4912L512 445.4912 288.256 669.184A43.52 43.52 0 0 1 212.48 640z"  horiz-adv-x="1024" />
      
      <glyph glyph-name="line-zoom-out" unicode="&#59193;" d="M110.933333 407.893333q0-156.245333 110.506667-266.666666 110.421333-110.506667 266.666667-110.506667 66.517333 0 124.714666 20.053333l0.554667 92.586667q-57.002667-27.306667-125.269333-27.306667-120.874667 0-206.378667 85.461334Q196.266667 287.018667 196.266667 407.893333q0 120.874667 85.461333 206.378667Q367.232 699.733333 488.106667 699.733333q68.266667 0 125.312-27.306666l0.981333 92.074666Q555.52 785.066667 488.106667 785.066667q-156.245333 0-266.666667-110.506667Q110.933333 564.181333 110.933333 407.893333zM315.733333 409.6a42.666667 42.666667 0 0 1 42.666667-42.666667h256a42.666667 42.666667 0 0 1 0 85.333334H358.442667a42.666667 42.666667 0 0 1-42.666667-42.666667z m172.373334 375.466667v-85.333334q68.266667 0 125.312-27.306666 43.861333-20.992 81.066666-58.154667 85.461333-85.504 85.461334-206.378667 0-120.874667-85.461334-206.378666l-2.005333-1.962667-0.341333-0.298667q-36.224-35.584-78.762667-55.893333-57.002667-27.306667-125.269333-27.306667v-85.333333q66.517333 0 124.714666 20.053333 58.24 19.968 108.16 60.032l119.765334-115.882666a42.666667 42.666667 0 1 1 59.306666 61.397333l-118.314666 114.432q83.541333 101.248 83.541333 237.141333 0 156.245333-110.506667 266.666667-62.762667 62.848-140.373333 89.941333-58.88 20.565333-126.293333 20.565334z"  horiz-adv-x="1024" />
      
      <glyph glyph-name="line-audio-up-01" unicode="&#59194;" d="M139.989333 11.989333Q85.333333 66.688 85.333333 144V624q0 77.312 54.656 132.010667Q194.688 810.666667 272 810.666667h312.021333a42.666667 42.666667 0 1 0 0-85.333334H272Q170.666667 725.333333 170.666667 624v-480q0-92.885333 85.162666-100.608l123.733334-0.725333h372.437333Q853.333333 42.666667 853.333333 144V384a42.666667 42.666667 0 1 0 85.333334 0v-240q0-77.312-54.656-132.010667Q829.312-42.666667 752-42.666667H272q-77.312 0-132.010667 54.656zM704 627.669333a42.666667 42.666667 0 0 0-30.08 72.874667l98.133333 97.706667a42.666667 42.666667 0 0 0 60.202667 0l93.866667-93.269334a42.666667 42.666667 0 1 0-60.245334-60.501333l-21.034666 20.906667v-137.386667a42.666667 42.666667 0 1 0-85.333334 0V665.344L734.08 640a42.666667 42.666667 0 0 0-30.08-12.373333zM512 128a42.666667 42.666667 0 0 0-42.666667 42.666667V554.666667a42.666667 42.666667 0 0 0 85.333334 0v-384a42.666667 42.666667 0 0 0-42.666667-42.666667zM341.333333 512a42.666667 42.666667 0 0 1-42.666666-42.666667v-213.333333a42.666667 42.666667 0 1 1 85.333333 0v213.333333a42.666667 42.666667 0 0 1-42.666667 42.666667z m341.333334-234.666667a42.666667 42.666667 0 0 0-42.666667 42.666667v85.333333a42.666667 42.666667 0 1 0 85.333333 0v-85.333333a42.666667 42.666667 0 0 0-42.666666-42.666667z"  horiz-adv-x="1024" />
      
      <glyph glyph-name="line-markdown" unicode="&#59195;" d="M115.2 115.2q0-53.034667 37.504-90.496 37.461333-37.504 90.496-37.504h331.221333v76.8H243.2q-21.205333 0-36.224 14.976-14.976 15.018667-14.976 36.224V652.8q0 51.2 51.2 51.2h320V780.8H243.2q-53.034667 0-90.496-37.504Q115.2 705.834667 115.2 652.8v-537.6zM283.264 411.136a38.4 38.4 0 0 1 0-54.272l112-112a38.4 38.4 0 1 1 54.272 54.272L364.714667 384l84.821333 84.864A38.4 38.4 0 1 1 395.221333 523.093333l-111.957333-112z m279.936-139.136a38.4 38.4 0 0 1 65.536-27.136l112 112a38.4 38.4 0 0 1 0 54.272l-111.957333 112a38.4 38.4 0 1 1-54.314667-54.272L659.285333 384l-84.821333-84.864a38.4 38.4 0 0 1-11.264-27.136zM460.8 780.8v-76.8h320q51.2 0 51.2-51.2v-537.6q0-51.2-51.2-51.2h-320v-76.8h320q53.034667 0 90.496 37.504 37.504 37.461333 37.504 90.496V652.8q0 53.034667-37.504 90.496Q833.834667 780.8 780.8 780.8h-320z"  horiz-adv-x="1024" />
      
      <glyph glyph-name="line-zoom-in" unicode="&#59196;" d="M110.933333 407.893333a377.173333 377.173333 0 0 1 502.4-355.882666l1.024 92.714666a291.84 291.84 0 1 0 0 526.378667l0.085334 92.288A377.173333 377.173333 0 0 1 110.933333 407.893333zM315.733333 409.6a42.666667 42.666667 0 0 1 42.666667-42.666667h85.333333v-85.333333a42.666667 42.666667 0 1 1 85.333334 0v85.333333h85.333333a42.666667 42.666667 0 1 1 0 85.333334h-85.333333v85.333333a42.666667 42.666667 0 1 1-85.333334 0v-85.333333h-85.333333a42.666667 42.666667 0 0 1-42.666667-42.666667z m172.373334 375.466667v-85.333334a291.84 291.84 0 0 0 204.373333-500.181333l-0.213333-0.213333a290.645333 290.645333 0 0 0-204.16-83.285334v-85.333333a376.533333 376.533333 0 0 1 232.661333 80.298667l119.978667-116.053334a42.666667 42.666667 0 0 1 59.306666 61.312l-118.485333 114.645334a377.344 377.344 0 0 1-167.082667 592.469333A376.533333 376.533333 0 0 1 488.106667 785.066667z"  horiz-adv-x="1024" />
      
      <glyph glyph-name="line-file-01" unicode="&#59197;" d="M174.933333 96q0-56.064 40.874667-95.530667 40.32-38.869333 97.066667-38.869333h398.208q56.746667 0 97.066666 38.869333 40.917333 39.466667 40.917334 95.530667V536.234667q0 15.36-3.072 29.482666-6.357333 29.141333-25.770667 52.906667-5.504 6.826667-12.074667 13.141333l-35.413333 34.133334-110.165333-0.426667L711.082667 618.666667l43.776-42.197334q4.949333-4.778667 8.490666-10.069333h-151.808q-11.392 0-11.392 9.6v85.333333h-76.8v-85.333333q0-36.181333 26.325334-61.568 25.770667-24.832 61.866666-24.832H772.266667v-393.6q0-23.466667-17.408-40.234667-18.005333-17.365333-43.776-17.365333H312.874667q-25.728 0-43.733334 17.365333Q251.733333 72.533333 251.733333 96V672H174.933333v-576zM174.933333 631.765333h76.8V672q0 23.466667 17.408 40.234667Q287.146667 729.6 312.874667 729.6h210.474666v-110.933333h76.8V722.432q7.466667-3.968 13.909334-10.197333L711.082667 618.666667h109.141333q-5.504 6.741333-12.074667 13.098666l-140.8 135.765334q-40.32 38.869333-97.024 38.869333H312.874667q-56.746667 0-97.066667-38.869333Q174.933333 728.064 174.933333 672v-40.234667z"  horiz-adv-x="1024" />
      
      <glyph glyph-name="line-audio" unicode="&#59198;" d="M570.538667 208.725333a176 176 0 0 1 23.424-114.346666 183.509333 183.509333 0 0 1 89.472-76.074667 189.312 189.312 0 0 1 117.845333-7.509333 185.216 185.216 0 0 1 98.773333 63.957333A178.090667 178.090667 0 0 1 938.666667 184.96v41.258667h-80.512v-41.258667c0-10.794667-1.834667-21.504-5.418667-31.658667a98.261333 98.261333 0 0 0-15.786667-28.544c-13.824-17.493333-33.408-30.208-55.850666-36.053333a108.8 108.8 0 0 0-67.669334 4.309333 102.997333 102.997333 0 0 0-50.346666 42.624 95.616 95.616 0 0 0-3.157334 93.013334l-85.632-0.426667a175.786667 175.786667 0 0 1-3.754666-19.498667z m-484.693334-58.197333a176.64 176.64 0 0 1 24.533334-103.552 183.552 183.552 0 0 1 89.472-76.074667 189.312 189.312 0 0 1 117.845333-7.509333 185.173333 185.173333 0 0 1 98.773333 63.957333 177.408 177.408 0 0 1 38.613334 110.208v51.669334 42.453333h-150.186667c6.229333-2.133333 12.245333-4.778667 18.005333-7.978667a40.362667 40.362667 0 0 1 3.114667-1.578666c-0.426667 0.213333-0.426667 0.170667 0.128-0.170667 0.938667-0.597333 3.370667-2.133333 7.338667-5.034667 5.418667-3.925333 12.032-9.173333 18.688-15.018666 6.656-5.930667 12.928-11.989333 17.92-17.621334 1.834667-2.133333 3.328-3.925333 4.48-5.461333V137.557333c0-21.589333-7.381333-42.794667-21.162667-60.202666a104.704 104.704 0 0 0-55.893333-36.053334 108.8 108.8 0 0 0-67.669334 4.309334 102.997333 102.997333 0 0 0-50.346666 42.581333 96.042667 96.042667 0 0 0-12.8 62.293333 98.133333 98.133333 0 0 0 29.226666 57.173334c11.136 10.794667 24.661333 18.986667 39.552 24.021333l-123.562666-0.981333a177.322667 177.322667 0 0 1-26.112-80.213334zM85.802667 150.528l80.896-0.085333a98.133333 98.133333 0 0 0 29.226666 57.216 105.173333 105.173333 0 0 0 60.501334 28.8 108.842667 108.842667 0 0 0 66.474666-12.757334 40.362667 40.362667 0 0 1 3.114667-1.578666 126.336 126.336 0 0 0 7.509333-5.205334 268.8 268.8 0 0 0 18.645334-15.018666c6.656-5.930667 12.928-11.989333 17.92-17.621334 1.834667-2.133333 3.328-3.925333 4.48-5.461333v-28.373333h80.512v38.784V629.12l403.072 90.965333v-386.218666a117.973333 117.973333 0 0 1-13.568 8.192 188.885333 188.885333 0 0 1-114.773334 21.674666 186.709333 186.709333 0 0 1-106.24-50.773333 179.114667 179.114667 0 0 1-53.034666-104.234667c-2.730667-19.84-2.005333-39.808 1.962666-59.136h83.712a95.616 95.616 0 0 0 3.754667 79.061334c4.906667 9.685333 11.52 18.645333 19.584 26.453333a106.24 106.24 0 0 0 60.458667 28.8 108.373333 108.373333 0 0 0 66.474666-12.8 41.685333 41.685333 0 0 1 3.242667-1.706667c0.938667-0.597333 3.370667-2.133333 7.338667-5.077333 5.418667-3.925333 12.032-9.173333 18.645333-15.018667 6.698667-5.888 12.970667-11.989333 17.92-17.621333 1.877333-2.133333 3.370667-3.925333 4.522667-5.461333v-41.258667c0-10.794667-1.834667-21.504-5.418667-31.658667l83.114667 0.469334c1.877333 10.24 2.816 20.693333 2.816 31.189333V770.432a40.234667 40.234667 0 0 1-49.109334 39.253333L437.376 707.669333a80.512 80.512 0 0 1-62.805333-78.506666v-342.698667a118.613333 118.613333 0 0 1-13.568 8.149333 188.885333 188.885333 0 0 1-114.773334 21.76 186.752 186.752 0 0 1-106.24-50.858666c-10.88-10.496-20.266667-22.186667-28.074666-34.816a177.322667 177.322667 0 0 1-26.112-80.213334z"  horiz-adv-x="1024" />
      
      <glyph glyph-name="line-pause-04" unicode="&#59199;" d="M213.333333 42.666667V725.333333a85.333333 85.333333 0 1 0 170.666667 0v-682.666666a85.333333 85.333333 0 1 0-170.666667 0z m426.666667 0V725.333333a85.333333 85.333333 0 1 0 170.666667 0v-682.666666a85.333333 85.333333 0 1 0-170.666667 0z"  horiz-adv-x="1024" />
      
      <glyph glyph-name="line-voiceChat" unicode="&#59192;" d="M110.9504 384a401.0496 401.0496 0 1 0 802.0992 0v-358.4c0-23.552-19.0976-42.6496-42.6496-42.6496h-102.4A93.8496 93.8496 0 0 0 674.1504 76.8v102.4c0 51.8144 41.984 93.8496 93.8496 93.8496h59.7504V384a315.7504 315.7504 0 1 1-631.5008 0v-110.9504H256c51.8656 0 93.8496-41.984 93.8496-93.8496v-102.4c0-51.8656-41.984-93.8496-93.8496-93.8496H153.6A42.6496 42.6496 0 0 0 110.9504 25.6v358.4z m85.2992-196.2496v-119.5008H256A8.5504 8.5504 0 0 1 264.5504 76.8v102.4A8.5504 8.5504 0 0 1 256 187.7504H196.2496z m631.5008 0H768a8.5504 8.5504 0 0 1-8.5504-8.5504v-102.4c0-4.7104 3.84-8.5504 8.5504-8.5504h59.7504v119.5008z"  horiz-adv-x="1024" />
      
      <glyph glyph-name="line-chat-explain" unicode="&#59191;" d="M512 810.666667q176.64 0 301.653333-124.970667Q938.581333 560.725333 938.581333 384q0-84.053333-31.36-160.853333l31.018667-217.088a42.666667 42.666667 0 0 0-52.608-47.402667l-180.053333 45.013333Q615.04-42.666667 511.914667-42.666667q-176.725333 0-301.653334 124.970667Q85.333333 207.274667 85.333333 384q0 176.725333 124.970667 301.696Q335.232 810.666667 511.957333 810.666667z m0-85.333334Q370.56 725.333333 270.592 625.365333T170.666667 384q0-141.397333 99.968-241.365333T511.957333 42.666667q89.514667 0 167.04 43.605333a42.666667 42.666667 0 0 0 31.232 4.181333l134.570667-33.621333-23.722667 166.016a42.666667 42.666667 0 0 0 3.2 23.296Q853.333333 311.68 853.333333 384q0 141.397333-100.010666 241.365333Q653.312 725.333333 512 725.333333z m42.666667-200.96v3.626667a42.666667 42.666667 0 1 1-85.333334 0v-3.626667a42.666667 42.666667 0 0 1 85.333334 0zM512 426.666667a42.666667 42.666667 0 0 1-42.666667-42.666667v-144a42.666667 42.666667 0 1 1 85.333334 0V384a42.666667 42.666667 0 0 1-42.666667 42.666667z"  horiz-adv-x="1024" />
      
      <glyph glyph-name="line-globe-01-broken" unicode="&#59188;" d="M798.165333 243.498667L853.333333 188.330667l55.168 55.168a42.666667 42.666667 0 0 0 60.330667-60.330667L913.664 128l55.168-55.168a42.666667 42.666667 0 0 0-60.330667-60.330667L853.333333 67.669333l-55.168-55.168a42.666667 42.666667 0 0 0-60.330666 60.330667L793.002667 128l-55.168 55.168a42.666667 42.666667 0 1 0 60.330666 60.330667zM85.333333 384c0-29.184 2.944-57.728 8.533334-85.248l87.466666 0.213333A339.882667 339.882667 0 0 0 173.312 341.333333h129.024c0.64-14.421333 1.664-28.629333 2.986667-42.666666l85.76 0.042666c-1.493333 13.866667-2.56 28.074667-3.328 42.624H896a42.666667 42.666667 0 0 1 42.666667 42.666667c0 27.136-2.56 53.717333-7.381334 79.445333l-87.253333 0.085334c2.858667-12.032 5.12-24.32 6.656-36.864h-128.981333a886.272 886.272 0 0 1-2.602667 38.485333l-85.76 0.426667c1.28-12.714667 2.261333-25.685333 2.901333-38.912H387.754667c0.682667 13.184 1.621333 26.112 2.901333 38.741333l-85.674667 0.256c-1.152-12.8-2.048-25.813333-2.645333-38.997333H173.312c1.664 13.312 4.096 26.410667 7.253333 39.210666l-87.04 1.792C88.149333 440.618667 85.333333 412.629333 85.333333 384zM87.424 426.410667L173.312 426.666667a342.058667 342.058667 0 0 0 189.397333 264.362666c-2.986667-5.973333-5.845333-12.117333-8.576-18.389333-24.917333-56.874667-42.069333-128.341333-49.152-206.976-1.152-12.8-2.048-25.813333-2.645333-38.997333h85.418667c0.682667 13.184 1.621333 26.112 2.901333 38.741333 6.784 67.925333 21.76 127.530667 41.642667 173.013333 13.781333 31.573333 29.098667 54.357333 43.946666 68.693334 14.677333 14.208 26.666667 18.218667 35.754667 18.218666 9.088 0 21.077333-4.010667 35.754667-18.176 14.848-14.378667 30.165333-37.205333 43.946666-68.693333 19.882667-45.482667 34.858667-105.045333 41.642667-172.885333 1.28-12.714667 2.261333-25.685333 2.901333-38.912h85.461334a893.013333 893.013333 0 0 1-2.602667 38.485333c-7.082667 78.848-24.277333 150.485333-49.194667 207.488a421.461333 421.461333 0 0 1-8.576 18.389333A342.016 342.016 0 0 0 850.688 426.666667l86.101333-2.432a427.093333 427.093333 0 0 1-5.546666 39.253333C894.08 661.077333 720.512 810.666667 512 810.666667c-207.018667 0-379.562667-147.413333-418.474667-342.997334-2.688-13.525333-4.693333-27.306667-6.101333-41.258666zM87.466667 340.736a426.965333 426.965333 0 0 1 381.952-381.312c23.466667-2.304 42.581333 17.024 42.581333 40.576v2.56c0 22.186667-19.285333 42.581333-35.285333 57.856a99.285333 99.285333 0 0 0-0.426667 0.426667c-14.890667 14.378667-30.208 37.205333-43.946667 68.693333-19.584 44.672-34.346667 102.826667-41.301333 169.173333-1.450667 13.866667-2.56 28.074667-3.285333 42.624H302.336c0.64-14.421333 1.664-28.629333 2.986667-42.666666 7.253333-77.184 24.32-147.285333 48.810666-203.306667 2.730667-6.272 5.589333-12.373333 8.533334-18.389333A342.101333 342.101333 0 0 0 173.354667 341.333333l-85.802667-0.597333z"  horiz-adv-x="1024" />
      
      <glyph glyph-name="line-alert-unknow" unicode="&#59189;" d="M132.266667 135.125333c-16.085333 56.576 18.005333 112 50.517333 164.778667 8.064 13.098667 16 26.026667 23.082667 38.826667l188.032 338.986666c0.341333 0.64 0.682667 1.28 1.066666 1.834667Q450.005333 768 554.794667 768q104.832 0 159.872-88.448l1.066666-1.834667 62.464-112.554666a42.666667 42.666667 0 0 0-74.666666-41.386667L643.84 631.466667a95.957333 95.957333 0 0 1-4.565333 7.594666Q609.408 682.666667 554.794667 682.666667h-1.109334c-65.92-0.554667-101.717333-76.202667-133.717333-133.845334L226.602667 200.106667l-1.109334-1.834667q-15.530667-24.96-11.093333-40.149333Q235.861333 85.333333 312.96 85.333333h199.253333a42.666667 42.666667 0 1 0 0-85.333333h-199.253333q-141.013333 0-180.352 134.058667l-0.298667 1.066666z m701.013333 89.642667q-18.048-18.901333-43.818667-18.901333c-24.234667 0-43.904-21.077333-43.904-47.061334 0-25.941333 19.626667-47.018667 43.946667-47.018666q61.568 0 105.216 45.781333 44.074667 46.165333 44.074667 111.658667 0 65.536-44.074667 111.701333Q851.072 426.666667 789.461333 426.666667q-61.568 0-105.216-45.738667-44.117333-46.165333-44.117333-111.701333c0-25.984 19.669333-47.018667 43.946667-47.018667 24.234667 0 43.946667 21.034667 43.946666 47.018667q0 63.402667 61.44 63.402666 61.525333 0 61.525334-63.402666 0-25.941333-17.664-44.458667z m0.128-216.149333v-4.266667c0-25.941333-19.669333-47.018667-43.946667-47.018667-24.234667 0-43.904 21.077333-43.904 47.018667v4.266667c0 25.941333 19.626667 47.018667 43.946667 47.018666 24.234667 0 43.904-21.077333 43.904-47.018666z"  horiz-adv-x="1024" />
      
      <glyph glyph-name="line-star-02" unicode="&#59186;" d="M61.312 450.389333c-38.656-13.098667-38.656-67.754667 0-80.853333L170.666667 332.544l177.792-60.16 27.349333 80.853333-167.68 56.746667 167.68 56.746667q60.074667 20.309333 80.298667 80.426666L512 713.301333l55.893333-166.144q20.224-60.16 80.298667-80.469333l167.68-56.746667-167.68-56.746666 27.306667-80.810667L853.333333 332.544l109.354667 36.992c38.698667 13.098667 38.698667 67.754667 0 80.853333l-287.146667 97.152a42.666667 42.666667 0 0 0-26.752 26.794667L552.448 860.757333c-13.056 38.741333-67.84 38.741333-80.896 0L375.210667 574.293333a42.666667 42.666667 0 0 0-26.752-26.794666l-287.146667-97.152zM170.666667 332.544l177.792-60.16a42.666667 42.666667 0 0 0 26.794666-26.794667l96.298667-286.378666c13.056-38.784 67.84-38.784 80.896 0l96.341333 286.378666a42.666667 42.666667 0 0 0 26.752 26.794667L853.333333 332.544l-37.418666 77.44-167.68-56.746667q-60.16-20.352-80.341334-80.469333L512 106.666667l-55.893333 166.144q-20.224 60.16-80.298667 80.469333l-167.68 56.746667L170.666667 332.544zM91.776 55.04a9.472 9.472 0 0 0 0 17.92l63.872 21.632a9.472 9.472 0 0 1 5.973333 5.973333l21.376 63.658667a9.472 9.472 0 0 0 18.005334 0l21.418666-63.701333a9.472 9.472 0 0 1 5.973334-5.973334l63.829333-21.546666a9.472 9.472 0 0 0 0-18.005334l-63.872-21.589333a9.472 9.472 0 0 1-5.973333-5.973333l-21.376-63.658667a9.472 9.472 0 0 0-18.005334 0l-21.418666 63.701333a9.472 9.472 0 0 1-5.973334 5.973334l-63.829333 21.546666zM733.056 714.538667a11.392 11.392 0 0 0 0 21.589333l76.629333 25.898667a11.392 11.392 0 0 1 7.168 7.168l25.685334 76.373333a11.392 11.392 0 0 0 21.589333 0l25.685333-76.373333a11.392 11.392 0 0 1 7.168-7.168l76.629334-25.898667a11.392 11.392 0 0 0 0-21.589333l-76.629334-25.898667a11.392 11.392 0 0 1-7.168-7.168l-25.685333-76.373333a11.392 11.392 0 0 0-21.589333 0l-25.685334 76.373333a11.392 11.392 0 0 1-7.168 7.168l-76.629333 25.898667z"  horiz-adv-x="1024" />
      
      <glyph glyph-name="line-star-01" unicode="&#59187;" d="M85.333333 378.794667q0-66.688 62.634667-89.856l77.312-28.544 127.104-46.933334 66.346667 66.432-120.576 44.544L177.493333 369.066667Q170.666667 371.584 170.666667 378.752q0 7.253333 6.869333 9.770667l241.194667 89.088 89.258666 240.810666Q510.549333 725.333333 517.973333 725.333333q7.424 0 9.941334-6.826666l89.301333-240.853334 241.194667-89.088q6.869333-2.56 6.869333-9.813333 0-7.210667-6.869333-9.728l-120.618667-44.544-120.576-44.586667 66.346667-66.432 127.104 46.933334 77.312 28.586666q62.634667 23.125333 62.634666 89.813334t-62.634666 89.813333l-204.373334 75.52-75.648 203.989333Q584.789333 810.666667 517.973333 810.666667q-66.816 0-89.984-62.549334L352.426667 544.085333l-204.373334-75.52Q85.333333 445.44 85.333333 378.837333zM225.28 260.394667l127.104-46.933334 75.605333-204.032q23.210667-62.549333 89.984-62.549333 66.816 0 89.984 62.549333l75.605334 204.032 127.104 46.933334-72.874667 64.042666-120.576-44.544-89.258667-240.810666q-2.56-6.826667-9.984-6.826667-7.424 0-9.984 6.826667L418.730667 279.893333l-120.576 44.544-72.874667-64z"  horiz-adv-x="1024" />
      
      <glyph glyph-name="line-check-01" unicode="&#59093;" d="M991.146667 711.850667a42.666667 42.666667 0 0 0-1.962667-60.288l-636.373333-597.333334a42.666667 42.666667 0 0 0-60.373334 1.962667l-259.584 277.333333a42.666667 42.666667 0 0 0 62.293334 58.282667l230.4-246.144L930.816 713.813333a42.666667 42.666667 0 0 0 60.288-1.92z"  horiz-adv-x="1024" />
      
      <glyph glyph-name="line-check-02" unicode="&#59183;" d="M863.146667 626.517333a42.666667 42.666667 0 0 0-1.962667-60.288l-454.570667-426.666666a42.666667 42.666667 0 0 0-60.330666 1.962666L160.853333 339.626667a42.666667 42.666667 0 1 0 62.293334 58.282666l156.245333-166.912 423.424 397.44a42.666667 42.666667 0 0 0 60.288-1.92z"  horiz-adv-x="1024" />
      
      <glyph glyph-name="line-package-fail-02" unicode="&#59185;" d="M114.602667 179.2a42.666667 42.666667 0 0 1 21.333333-36.949333l354.730667-204.8a42.666667 42.666667 0 0 1 42.666666 0l112.384 64.853333a42.666667 42.666667 0 0 1-42.666666 73.898667L512 23.637333l-312.064 180.181334V564.138667L512 744.32l312.064-180.181333v-178.901334a42.666667 42.666667 0 1 1 85.333333 0V588.8a42.666667 42.666667 0 0 1-21.333333 36.992l-354.730667 204.8a42.666667 42.666667 0 0 1-42.666666 0l-354.730667-204.8a42.666667 42.666667 0 0 1-21.333333-36.949333v-409.6zM129.365333 516.949333L469.333333 336.981333V0h85.333334v336.981333l339.968 179.968-39.936 75.434667L512 410.88 169.301333 592.384l-39.936-75.434667zM798.165333 243.498667L853.333333 188.330667l55.168 55.168a42.666667 42.666667 0 0 0 60.330667-60.330667L913.664 128l55.168-55.168a42.666667 42.666667 0 0 0-60.330667-60.330667L853.333333 67.669333l-55.168-55.168a42.666667 42.666667 0 0 0-60.330666 60.330667L793.002667 128l-55.168 55.168a42.666667 42.666667 0 1 0 60.330666 60.330667z"  horiz-adv-x="1024" />
      
      <glyph glyph-name="line-link-broken" unicode="&#59182;" d="M415.403552 895.777282a42.666276 42.666276 0 0 0 38.228983-46.676905l-7.67993-77.780621a42.666276 42.666276 0 1 0-84.948554 8.405257L368.641314 857.590965A42.666276 42.666276 0 0 0 415.446218 895.777282z m102.100398-175.870388a230.611219 230.611219 0 0 0 165.374484 66.986053c61.823433-0.426663 121.172223-24.703774 165.374484-68.692704a232.531202 232.531202 0 0 0 2.218646-331.260963l-95.31646-95.273794a42.666276 42.666276 0 0 0-60.330113 60.330114l95.316459 95.273793a147.198651 147.198651 0 0 1-1.493319 209.832744l-0.511996 0.469329a150.910617 150.910617 0 0 1-105.855029 44.031596 145.278668 145.278668 0 0 1-104.447043-42.026281L482.56027 564.302987A42.666276 42.666276 0 0 0 422.18749 624.633101l95.31646 95.273793zM162.13654 769.741104a42.666276 42.666276 0 0 0 60.330114 0l47.231567-47.188901A42.666276 42.666276 0 0 0 209.368107 662.179423L162.179207 709.41099a42.666276 42.666276 0 0 0 0 60.330114z m537.16841-196.648864a42.666276 42.666276 0 0 0 0-60.330114l-285.864047-285.864046a42.666276 42.666276 0 1 0-60.330113 60.330114l285.864046 285.864046a42.666276 42.666276 0 0 0 60.330114 0zM208.472116 539.727213a42.666276 42.666276 0 0 0-38.27165-46.676906l-80.63926-8.02126a42.666276 42.666276 0 0 0-8.447923 84.905889l80.681927 8.021259a42.666276 42.666276 0 0 0 46.676906-38.228982z m152.318603-33.322362a42.666276 42.666276 0 0 0 0-60.37278l-95.273793-95.273793a147.198651 147.198651 0 0 1 2.474644-210.771401 147.241317 147.241317 0 0 1 105.385701-44.714257c40.874292-0.298664 77.09796 14.677199 104.447042 42.026281l95.273794 95.273794a42.666276 42.666276 0 1 0 60.37278-60.330114l-95.31646-95.273793c-43.818265-43.860931-102.18573-67.498048-165.374484-66.986053a232.531202 232.531202 0 0 0-165.630482 70.143357 232.531202 232.531202 0 0 0-1.962649 330.9623L300.460606 506.447518a42.666276 42.666276 0 0 0 60.330113 0z m655.908655-211.92339a42.666276 42.666276 0 0 0-38.27165-46.676906l-80.63926-7.978593a42.666276 42.666276 0 1 0-8.447923 84.905888l80.639261 8.02126a42.666276 42.666276 0 0 0 46.719572-38.271649z m-226.856588-138.921394a42.666276 42.666276 0 0 0 60.330114 0l47.231567-47.1889a42.666276 42.666276 0 0 0-60.37278-60.330114l-47.188901 47.188901a42.666276 42.666276 0 0 0 0 60.330113z m-129.534812-70.826017a42.666276 42.666276 0 0 0 38.271649-46.719572l-7.722596-77.78062a42.666276 42.666276 0 0 0-84.905888 8.405256l7.679929 77.823287a42.666276 42.666276 0 0 0 46.676906 38.228983z"  horiz-adv-x="1024" />
      
      <glyph glyph-name="line-browser-fail-01" unicode="&#59184;" d="M798.165333 200.832L853.333333 145.664l55.168 55.168a42.666667 42.666667 0 1 0 60.330667-60.330667L913.664 85.333333l55.168-55.168a42.666667 42.666667 0 0 0-60.330667-60.330666L853.333333 25.002667l-55.168-55.168a42.666667 42.666667 0 0 0-60.330666 60.330666L793.002667 85.333333l-55.168 55.168a42.666667 42.666667 0 1 0 60.330666 60.330667zM170.666667 634.666667C170.666667 661.162667 192.170667 682.666667 218.666667 682.666667h136.021333V768H218.624A133.333333 133.333333 0 0 1 85.333333 634.666667v-544C85.333333 17.024 145.066667-42.666667 218.666667-42.666667H618.666667a42.666667 42.666667 0 1 1 0 85.333334H218.666667A48 48 0 0 0 170.666667 90.666667V478.677333h184.021333v85.333334H170.666667V634.666667zM490.666667 682.666667V768H354.645333v-85.333333H490.666667zM490.666667 478.677333v85.333334H354.645333v-85.333334H490.666667zM810.666667 634.666667v-70.656h-320v-85.333334H810.666667V320a42.666667 42.666667 0 1 1 85.333333 0V634.666667C896 708.309333 836.266667 768 762.666667 768H490.666667v-85.333333h272C789.162667 682.666667 810.666667 661.162667 810.666667 634.666667zM490.666667 682.666667V768H354.645333v-85.333333H490.666667zM490.666667 478.677333v85.333334H354.645333v-85.333334H490.666667z"  horiz-adv-x="1024" />
      
      <glyph glyph-name="line-arrow-down-right-sm" unicode="&#59181;" d="M350.890667 555.264A42.666667 42.666667 0 0 0 394.154667 597.333333l285.098666-4.010666a42.666667 42.666667 0 0 0 42.069334-42.069334L725.333333 266.154667a42.666667 42.666667 0 0 0-85.333333-1.237334l-2.56 184.149334-265.941333-265.898667a42.666667 42.666667 0 0 0-60.330667 60.330667l265.898667 265.898666L392.96 512a42.666667 42.666667 0 0 0-42.026667 43.264z"  horiz-adv-x="1024" />
      
      <glyph glyph-name="line-app-download-01" unicode="&#59179;" d="M307.2 725.333333a59.733333 59.733333 0 0 1-59.733333-59.733333v-571.733333a59.733333 59.733333 0 0 1 59.733333-59.733334 42.666667 42.666667 0 1 0 0-85.333333 145.066667 145.066667 0 0 0-145.066667 145.066667V665.6A145.066667 145.066667 0 0 0 307.2 810.666667h409.6a145.066667 145.066667 0 0 0 145.066667-145.066667v-571.733333a145.066667 145.066667 0 0 0-145.066667-145.066667 42.666667 42.666667 0 0 0 0 85.333333 59.733333 59.733333 0 0 1 59.733333 59.733334V665.6A59.733333 59.733333 0 0 1 716.8 725.333333H307.2zM513.450667 474.88a42.666667 42.666667 0 0 0 42.666666-42.666667v-242.901333l32.170667 32.64a42.666667 42.666667 0 0 0 60.757333-59.946667l-105.258666-106.666666a42.666667 42.666667 0 0 0-60.330667-0.384l-108.074667 106.666666a42.666667 42.666667 0 0 0 59.904 60.714667l35.498667-34.986667v244.906667a42.666667 42.666667 0 0 0 42.666667 42.666667z"  horiz-adv-x="1024" />
      
      <glyph glyph-name="line-arrow-up-right" unicode="&#59180;" d="M318.208 593.92a42.666667 42.666667 0 0 0 42.666667 42.666667h363.605333a42.666667 42.666667 0 0 0 42.666667-42.666667v-358.442667a42.666667 42.666667 0 1 0-85.333334 0V490.88l-349.525333-349.525333a42.666667 42.666667 0 1 0-60.373333 60.330666l349.568 349.568H360.874667a42.666667 42.666667 0 0 0-42.666667 42.666667z"  horiz-adv-x="1024" />
      
      <glyph glyph-name="line-file-none" unicode="&#59178;" d="M127.402667 878.506667a42.666667 42.666667 0 0 0 59.861333-7.509334l25.344-32.597333 0.512-0.64 8.746667-11.221333V76.8a59.733333 59.733333 0 0 1 59.733333-59.733333H851.456l12.544-16.170667 0.512-0.64 39.552-50.858667a42.666667 42.666667 0 1 0-67.370667-52.394666l-27.008 34.730666H281.6a145.066667 145.066667 0 0 0-145.066667 145.066667V797.269333l-16.64 21.333334A42.666667 42.666667 0 0 0 127.445333 878.506667zM341.333333 793.6a42.666667 42.666667 0 0 0 42.666667 42.666667h284.586667c26.453333 0 51.242667-11.136 68.992-29.781334 14.634667-15.445333 37.376-38.656 58.88-57.898666 19.2-17.194667 48.341333-47.018667 64.981333-64.256 16.853333-17.493333 26.026667-40.746667 26.026667-64.725334V170.666667a42.666667 42.666667 0 0 0-85.333334 0V546.133333h-8.277333v85.333334c-16.853333 17.365333-39.68 40.448-54.314667 53.546666A1118.72 1118.72 0 0 0 682.666667 740.394667h-85.333334V750.933333H384a42.666667 42.666667 0 0 0-42.666667 42.666667zM682.666667 740.394667h-85.333334v-50.176h85.333334V740.394667zM793.856 546.133333v85.333334h-51.328v-85.333334h51.328zM743.338667 17.066667h108.117333l-39.338667 50.56H704l39.338667-50.56zM221.866667 826.538667v-138.965334L265.472 631.466667V770.474667L221.866667 826.538667zM597.333333 640a93.866667 93.866667 0 0 1 93.866667-93.866667h102.656v85.333334H691.2A8.533333 8.533333 0 0 0 682.666667 640V740.394667h-85.333334V640zM221.866667 687.530667L743.296 17.066667h108.117333L221.824 826.538667v-139.008z"  horiz-adv-x="1024" />
      
      <glyph glyph-name="line-phone" unicode="&#59177;" d="M672.142944 732.509128c33.479804 38.299854 57.124102 90.53877 57.124101 143.298772 0 7.230074-0.586222 14.525285-1.693531 20.1921-54.844348-2.084346-120.761784-34.131162-159.778131-77.576744-31.265187-33.088989-59.79467-85.848992-59.794669-138.608995 0-8.272247 1.628395-16.023408 2.149481-18.62884 3.321926-0.521086 8.793334-1.563259 14.850964-1.56326 48.851854 0 110.340055 31.069779 147.206921 72.952103z m38.430125-83.764646c-81.810572 0-148.77018-47.028052-191.62954-47.028052-45.595064 0-104.868647 43.966669-176.25749 43.966669C207.073292 645.683099 69.832149 540.163094 69.832149 341.498887c0-124.08371 50.545385-254.941543 113.661981-339.227276 53.802175-71.388843 100.960499-129.815661 169.092551-129.81566 67.024744 0 96.661536 41.882323 180.100503 41.882323 84.546276 0 103.761338-40.84015 177.885885-40.84015 73.60346 0 122.455315 63.572546 169.157687 126.168055 51.587558 71.909929 73.538325 141.735513 74.059411 145.317982-4.364099 1.042173-144.927167 55.365435-144.927167 206.936455 0 131.313784 110.340055 190.326824 116.983907 194.951466-73.082374 98.811017-184.529737 101.8724-215.273838 101.8724z"  horiz-adv-x="1024" />
      
      <glyph glyph-name="line-eye-open" unicode="&#59176;" d="M366.933333 382.72c0-64.725333 43.648-118.186667 102.4-135.978667a147.285333 147.285333 0 0 1 85.333334 0v96.128c-10.666667-10.453333-25.6-17.066667-42.666667-17.066666s-32 6.613333-42.666667 17.066666a55.893333 55.893333 0 0 0-17.066666 39.893334c0 15.36 6.528 29.696 17.408 40.192 10.666667 10.24 25.429333 16.768 42.325333 16.768 16.938667 0 31.829333-6.570667 42.496-16.938667l-0.170667 96.085333a147.328 147.328 0 0 1-84.650666 0c-58.922667-17.621333-102.741333-71.253333-102.741334-136.106666z m-309.461333-4.437333c8.064-21.76 16.384-42.88 27.221333-63.445334 15.232-28.842667 38.997333-67.328 73.472-106.069333 63.530667-71.424 163.669333-143.786667 311.168-157.653333a542.890667 542.890667 0 0 1 85.333334-1.194667l0.042666 85.589333a453.034667 453.034667 0 0 0-85.333333 1.408c-117.418667 13.226667-196.266667 70.954667-247.466667 128.554667a453.888 453.888 0 0 0-61.696 89.173333 389.717333 389.717333 0 0 0-12.117333 24.96 460.970667 460.970667 0 0 0 73.045333 120.618667c50.986667 60.330667 129.706667 120.021333 248.533334 131.669333a434.858667 434.858667 0 0 0 84.650666 0L554.666667 717.525333a526.08 526.08 0 0 1-85.12 0c-149.888-12.117333-250.453333-87.509333-313.557334-162.261333a546.304 546.304 0 0 1-72.362666-111.061333c-10.453333-21.333333-18.986667-43.221333-26.112-65.92zM469.333333 246.741333a147.242667 147.242667 0 0 1 85.333334 0c58.752 17.749333 102.4 71.253333 102.4 136.021334 0 64.853333-43.818667 118.485333-102.741334 136.106666a147.370667 147.370667 0 0 1-84.650666 0v-95.914666c10.666667 10.24 25.429333 16.768 42.325333 16.768 16.938667 0 31.829333-6.570667 42.496-16.938667 10.752-10.453333 17.237333-24.746667 17.237333-40.021333 0-15.189333-6.4-29.44-17.066666-39.893334-10.666667-10.453333-25.6-17.066667-42.666667-17.066666s-32 6.613333-42.666667 17.066666v-96.128z m0-195.626666a542.933333 542.933333 0 0 1 85.333334-1.194667c147.669333 9.941333 247.936 82.645333 311.466666 155.306667a541.013333 541.013333 0 0 1 73.386667 108.629333c4.053333 7.893333 25.088 63.018667 26.794667 64.682667h0.128q-21.930667 57.301333-26.026667 65.706666a546.474667 546.474667 0 0 1-72.362667 111.018667c-63.146667 74.709333-163.626667 150.101333-313.429333 162.261333a526.08 526.08 0 0 1-85.12 0l0.170667-85.632a434.858667 434.858667 0 0 0 84.650666 0c118.826667-11.648 197.546667-71.338667 248.533334-131.669333a460.928 460.928 0 0 0 73.130666-120.917333 455.68 455.68 0 0 0-74.154666-117.973334c-51.285333-58.666667-129.877333-116.224-247.125334-125.866666a453.077333 453.077333 0 0 0-85.333333 1.408v-85.76z"  horiz-adv-x="1024" />
      
      <glyph glyph-name="line-unarchive-02" unicode="&#59173;" d="M853.333333 170.965333a42.538667 42.538667 0 0 1 85.034667-0.170666c0.128 46.378667 0.298667 120.106667 0.298667 164.437333a42.581333 42.581333 0 0 1-2.645334 14.762667l-120.618666 326.826666C792.96 737.621333 749.653333 768 685.482667 768H381.184a42.666667 42.666667 0 1 1 0-85.333333h304.298667c24.533333 0 41.130667-11.776 49.834666-35.413334L853.333333 335.274667v-164.266667zM746.666667 377.898667a42.666667 42.666667 0 1 1 0-85.333334h11.093333a42.666667 42.666667 0 1 1 0 85.333334h-11.093333zM181.930667 756.736A42.666667 42.666667 0 0 1 121.6 696.405333l68.821333-68.864-102.442666-277.546666a42.666667 42.666667 0 0 1-2.645334-14.762667v-195.029333h85.333334v195.029333l85.632 226.432 252.032-252.032h-105.813334L351.146667 364.416a42.666667 42.666667 0 0 1-31.146667 13.482667H266.24a42.666667 42.666667 0 0 1 0-85.333334h35.285333l51.328-54.784a42.666667 42.666667 0 0 1 31.146667-13.482666h209.664L732.629333 85.333333l84.394667-84.394666 51.456-51.413334a42.666667 42.666667 0 0 1 60.330667 60.330667L181.930667 756.736zM800 0c5.802667 0 11.52 0.341333 17.066667 0.938667L732.586667 85.333333H224c-14.592 0-27.093333 5.290667-37.461333 15.829334A53.589333 53.589333 0 0 0 170.666667 140.202667H85.333333c0-38.570667 13.44-71.552 40.362667-98.901334A132.864 132.864 0 0 1 224 0h576z"  horiz-adv-x="1024" />
      
      <glyph glyph-name="map-01" unicode="&#59174;" d="M104.362667 760.832a42.666667 42.666667 0 0 0 40.106666 3.84l218.325334-91.050667 251.434666 91.776a42.666667 42.666667 0 0 0 29.269334 0l267.093333-97.493333a42.666667 42.666667 0 0 0 28.074667-40.106667V42.666667a42.666667 42.666667 0 0 0-57.301334-40.106667l-252.501333 92.202667-252.501333-92.16a42.666667 42.666667 0 0 0-31.061334 0.682666l-233.728 97.536A42.666667 42.666667 0 0 0 85.333333 140.202667V725.333333a42.666667 42.666667 0 0 0 19.029334 35.498667z m524.501333-80.938667l-252.501333-92.16a42.666667 42.666667 0 0 0-31.061334 0.682667L170.666667 661.333333v-492.672l192.128-80.170666 251.434666 91.818666a42.666667 42.666667 0 0 0 29.269334 0L853.333333 103.68V597.973333l-224.426666 81.92z m3.114667-75.434666a42.666667 42.666667 0 0 0 42.666666-42.666667v-257.024a42.666667 42.666667 0 1 0-85.333333 0V561.792a42.666667 42.666667 0 0 0 42.666667 42.666667z m-263.978667-93.44a42.666667 42.666667 0 0 0 42.666667-42.666667v-257.066667a42.666667 42.666667 0 1 0-85.333334 0v257.024a42.666667 42.666667 0 0 0 42.666667 42.666667z"  horiz-adv-x="1024" />
      
      <glyph glyph-name="line-email-01" unicode="&#59175;" d="M224 725.333333C145.962667 725.333333 85.333333 660.181333 85.333333 583.125333v-398.250666h85.333334v392.106666c1.365333-1.28 2.858667-2.517333 4.437333-3.626666l284.672-204.373334a89.258667 89.258667 0 0 1 104.448 0l284.672 204.373334c1.578667 1.109333 3.072 2.346667 4.437333 3.669333v-392.106667h85.333334V583.082667C938.666667 660.181333 878.037333 725.333333 800 725.333333H224z m285.568-287.061333L228.608 640h566.784l-280.96-201.728a4.096 4.096 0 0 0-2.432-0.853333 4.096 4.096 0 0 0-2.432 0.853333zM800 42.666667c78.037333 0 138.666667 65.152 138.666667 142.208h-85.333334c0-32.853333-25.344-56.874667-53.333333-56.874667H224C196.010667 128 170.666667 151.978667 170.666667 184.874667H85.333333C85.333333 107.818667 145.962667 42.666667 224 42.666667h576z"  horiz-adv-x="1024" />
      
      <glyph glyph-name="line-key-02" unicode="&#59172;" d="M444.885333 741.333333c-124.074667 36.266667-253.696-33.578667-290.133333-154.709333-36.394667-120.832 33.28-248.618667 157.098667-284.842667 58.624-17.152 113.322667-22.357333 155.221333-6.101333a42.666667 42.666667 0 0 0 45.354667-9.386667l273.109333-269.226666H878.933333v90.88l-272.853333 268.928a42.666667 42.666667 0 0 0-11.989333 38.101333l6.826666 36.949333a41.898667 41.898667 0 0 0 1.066667 4.565334c36.394667 120.832-33.28 248.618667-157.098667 284.842666zM72.96 611.2C123.306667 778.154667 300.714667 872.448 468.821333 823.296c167.552-49.066667 264.277333-222.592 215.594667-389.034667l-2.304-12.458666 269.44-265.6a42.666667 42.666667 0 0 0 12.714667-30.378667V-25.6a42.666667 42.666667 0 0 0-42.666667-42.666667h-153.557333a42.666667 42.666667 0 0 0-29.952 12.288l-267.392 263.594667c-61.354667-14.933333-127.146667-4.010667-182.826667 12.245333-168.32 49.28-265.173333 224.213333-214.869333 391.381334zM341.376 512a42.666667 42.666667 0 0 0 42.666667 42.666667h5.12a42.666667 42.666667 0 0 0 0-85.333334h-5.12a42.666667 42.666667 0 0 0-42.666667 42.666667z"  horiz-adv-x="1024" />
      
      <glyph glyph-name="line-sidebar-01" unicode="&#59171;" d="M213.333333 640a42.666667 42.666667 0 0 0 42.666667 42.666667h85.333333a42.666667 42.666667 0 1 0 0-85.333334H256a42.666667 42.666667 0 0 0-42.666667 42.666667z m0-153.6a42.666667 42.666667 0 0 0 42.666667 42.666667h85.333333a42.666667 42.666667 0 1 0 0-85.333334H256a42.666667 42.666667 0 0 0-42.666667 42.666667zM256 836.266667A196.266667 196.266667 0 0 1 59.733333 640v-256h85.333334V640A110.933333 110.933333 0 0 0 256 750.933333h192V384h85.333333V750.933333H768A110.933333 110.933333 0 0 0 878.933333 640v-256h85.333334V640A196.266667 196.266667 0 0 1 768 836.266667H256zM768-68.266667a196.266667 196.266667 0 0 1 196.266667 196.266667v256h-85.333334v-256a110.933333 110.933333 0 0 0-110.933333-110.933333h-234.666667V384h-85.333333v-366.933333H256A110.933333 110.933333 0 0 0 145.066667 128v256h-85.333334v-256A196.266667 196.266667 0 0 1 256-68.266667h512z"  horiz-adv-x="1024" />
      
      <glyph glyph-name="line-chevron-up" unicode="&#59169;" d="M483.2 500.778667a42.666667 42.666667 0 0 0 57.685333 0l213.290667-195.541334a42.666667 42.666667 0 0 0-57.685333-62.890666l-184.448 169.088-184.533334-169.130667a42.666667 42.666667 0 1 0-57.685333 62.933333l213.376 195.541334z"  horiz-adv-x="1024" />
      
      <glyph glyph-name="line-chevron-down" unicode="&#59170;" d="M267.221333 498.133333a42.666667 42.666667 0 0 0 60.245334 2.645334l184.576-168.96 184.490666 168.96a42.666667 42.666667 0 1 0 57.6-62.890667l-213.290666-195.413333a42.666667 42.666667 0 0 0-57.6 0l-213.376 195.413333a42.666667 42.666667 0 0 0-2.645334 60.245333z"  horiz-adv-x="1024" />
      
      <glyph glyph-name="line-close" unicode="&#59168;" d="M0 896m512 0l0 0q512 0 512-512l0 0q0-512-512-512l0 0q-512 0-512 512l0 0q0 512 512 512ZM298.057143 566.857143c0-8.777143 3.657143-17.115429 10.24-23.04L468.114286 384 308.224 224.182857a31.085714 31.085714 0 1 1 43.885714-43.885714L512 340.114286l159.817143-159.890286a31.085714 31.085714 0 1 1 43.885714 43.885714L555.885714 384l159.890286 159.817143a31.085714 31.085714 0 1 1-43.885714 43.885714L512 427.885714 352.182857 587.776a31.085714 31.085714 0 0 1-54.125714-20.918857z"  horiz-adv-x="1024" />
      
      <glyph glyph-name="line-play-03" unicode="&#59167;" d="M225.536 802.389333c34.986667 15.786667 74.453333 7.552 105.984-11.733333l1.28-0.768 456.96-324.48c32.128-18.346667 63.530667-47.402667 63.573333-89.472 0.042667-41.728-31.061333-72.106667-63.146666-92.416L336.725333-22.314667l-1.962666-1.024c-32.810667-17.493333-73.130667-28.16-109.141334-9.642666-37.12 19.072-50.602667 59.136-52.992 97.834666l-0.042666 1.28L170.666667 705.237333c-0.810667 42.368 17.194667 80.213333 54.826666 97.152z m33.109333-79.872c-1.024-1.834667-2.816-6.570667-2.645333-15.914666v-0.384l1.92-637.269334c1.322667-18.645333 5.674667-24.661333 6.954667-26.026666 1.664-0.341333 9.728-1.28 27.946666 8.106666l450.773334 304 0.597333 0.341334c11.904 7.509333 18.474667 13.738667 21.717333 18.005333a22.442667 22.442667 0 0 1 1.493334 2.218667 20.053333 20.053333 0 0 1-0.810667 1.066666c-2.816 3.456-8.874667 8.96-20.48 15.402667l-2.048 1.152L285.866667 718.506667c-15.189333 8.96-23.893333 6.741333-25.344 6.101333-0.426667-0.213333-1.066667-0.512-1.92-2.090667z"  horiz-adv-x="1024" />
      
      <glyph glyph-name="line-x-03" unicode="&#59166;" d="M311.168 584.832a42.666667 42.666667 0 0 0 60.330667 0L512 444.330667l140.501333 140.501333a42.666667 42.666667 0 1 0 60.330667-60.330667L572.330667 384l140.501333-140.501333a42.666667 42.666667 0 0 0-60.330667-60.330667L512 323.669333l-140.501333-140.501333a42.666667 42.666667 0 0 0-60.330667 60.330667L451.669333 384 311.168 524.501333a42.666667 42.666667 0 0 0 0 60.330667z"  horiz-adv-x="1024" />
      
      <glyph glyph-name="line-video-off" unicode="&#59165;" d="M1024 151.552a43.178667 43.178667 0 1 0-86.357333 0.469333l-0.469334 413.952-186.154666-80.213333 0.213333-37.461333a42.752 42.752 0 1 0-85.461333-0.341334l-0.469334 153.770667c0 16-6.144 29.738667-18.432 41.216a67.413333 67.413333 0 0 1-47.872 18.389333H426.666667a42.666667 42.666667 0 1 0 0 85.333334h172.330666c41.301333 0 76.714667-13.824 106.24-41.429334 30.250667-28.373333 45.397333-62.762667 45.397334-103.210666l0.085333-23.509334 162.133333 69.888c26.197333 12.928 49.834667 14.250667 70.826667 4.010667 23.68-11.52 36.565333-33.109333 38.656-64.682667l0.085333-2.602666L1024 151.552zM883.498667 72.832a42.666667 42.666667 0 0 1-12.501334 30.165333L200.832 755.498667a42.666667 42.666667 0 0 1-72.149333-22.613334 153.258667 153.258667 0 0 1-40.618667-27.648C57.770667 676.864 42.666667 642.432 42.666667 601.898667V384h85.333333V601.898667c0 28.16 22.485333 51.456 49.152 57.6l490.410667-477.525334-0.042667-6.912c-0.042667-3.328-0.085333-6.016 0.085333-9.642666 0-34.389333-37.290667-58.752-68.608-58.752H396.629333v-85.333334h202.368c41.301333 0 76.714667 13.824 106.24 41.429334 15.573333 14.634667 27.178667 30.890667 34.730667 48.725333l70.442667-68.608L810.666667 42.666667a42.666667 42.666667 0 0 1 72.832 30.165333zM88.064 62.762667c29.482667-27.605333 64.896-41.429333 106.24-41.429334h202.325333v85.333334H194.304C161.109333 106.666667 128 130.858667 128 166.101333V384H42.666667v-217.898667c0-40.533333 15.146667-74.965333 45.397333-103.338666z"  horiz-adv-x="1024" />
      
      <glyph glyph-name="line-mute-02" unicode="&#59164;" d="M644.992 617.984v-116.437333a42.666667 42.666667 0 1 1 85.333333 0V617.984c0 60.288-21.333333 111.744-63.914666 154.368C623.786667 814.933333 572.330667 836.266667 512 836.266667a217.002667 217.002667 0 0 1-134.314667-46.293334c-20.821333-16.298667-18.773333-46.378667-0.085333-65.024 14.634667-14.549333 38.826667-12.373333 55.466667-0.085333A132.565333 132.565333 0 0 0 512 750.933333c36.693333 0 68.053333-12.970667 94.037333-38.954666 25.941333-25.941333 38.912-57.301333 38.912-93.994667z m238.506667-502.485333l-371.456 361.642666-3.968-115.2 85.845333-83.584c-24.32-20.906667-52.906667-31.36-85.845333-31.36l3.968-81.493333c55.04 0 102.741333 17.792 143.018666 53.333333l106.666667-103.850666a393.472 393.472 0 0 0-9.472-8.448C683.264 46.933333 603.178667 17.066667 512 17.066667s-171.264 29.866667-240.256 89.514666c-68.949333 59.648-110.037333 134.570667-123.178667 224.853334a42.666667 42.666667 0 1 1-84.437333-12.288c16.213333-111.232 66.816-203.605333 151.808-277.12C300.928-31.488 399.616-68.266667 512-68.266667c112.384 0 211.072 36.778667 296.106667 110.293334 5.034667 4.394667 9.984 8.832 14.805333 13.354666l0.256-0.213333a42.666667 42.666667 0 0 1 60.330667 60.330667z m10.282666 119.296c-21.76 8.618667-32.298667 33.024-26.496 55.722666 3.370667 13.226667 6.058667 26.837333 8.106667 40.789334v0.128a42.666667 42.666667 0 1 0 84.48-12.288c-2.986667-20.48-7.168-40.362667-12.458667-59.562667-6.4-22.954667-31.488-33.578667-53.632-24.789333zM140.501333 737.834667a42.666667 42.666667 0 0 1 12.501334-30.165334l140.8-137.045333v-186.794667c0-60.288 21.290667-111.744 63.914666-154.368 42.624-42.624 94.08-63.914667 154.325334-63.914666l-3.968 81.493333c-36.693333 0-68.053333 12.970667-93.994667 38.912a128.085333 128.085333 0 0 0-38.954667 94.037333v111.36l132.949334-129.408 3.968 115.2-298.666667 290.858667a42.666667 42.666667 0 0 1-72.874667-30.165333z"  horiz-adv-x="1024" />
      
      <glyph glyph-name="jiazaizhong" unicode="&#59573;" d="M951.9 383h-60c-4.4 0-7.9 3.5-8 7.8-2 96.2-40.4 186.3-108.6 254.5-68.2 68.3-158.3 106.6-254.5 108.6-4.4 0.1-7.8 3.6-7.8 8v60c0 4.5 3.7 8.1 8.1 8 57.5-1 113.2-12.8 165.9-35.1 53.2-22.5 101-54.7 142.1-95.8 41-41 73.3-88.8 95.8-142.1C947.2 504.3 959 448.5 960 391c0-4.3-3.6-8-8.1-8z"  horiz-adv-x="1024" />
      
      <glyph glyph-name="fill" unicode="&#59163;" d="M822.698667 712.362667l-55.637334-57.344Q661.504 768 501.674667 768 346.453333 768 236.970667 655.061333 128 542.677333 128 384t108.970667-271.061333Q346.496 0 501.674667 0q123.050667 0 221.738666 74.922667 96.298667 73.045333 133.418667 189.44a42.666667 42.666667 0 0 1-81.322667 25.941333Q710.229333 85.333333 501.674667 85.333333q-119.04 0-203.434667 87.04Q213.333333 259.882667 213.333333 384t84.906667 211.626667Q382.634667 682.666667 501.674667 682.666667q124.032 0 205.866666-89.088l-50.346666-51.882667A42.666667 42.666667 0 0 1 687.829333 469.333333H853.333333a42.666667 42.666667 0 0 1 42.666667 42.666667V682.666667a42.666667 42.666667 0 0 1-73.301333 29.696z"  horiz-adv-x="1024" />
      
      <glyph glyph-name="line-chevron-left" unicode="&#59084;" d="M682.666667 597.333333a42.666667 42.666667 0 0 0-12.501334-30.165333L486.997333 384l183.168-183.125333a42.666667 42.666667 0 1 0-60.330666-60.373334l-213.333334 213.333334a42.666667 42.666667 0 0 0 0 60.330666l213.333334 213.333334A42.666667 42.666667 0 0 0 682.666667 597.333333z"  horiz-adv-x="1024" />
      
      <glyph glyph-name="line-chevron-right" unicode="&#59085;" d="M384 597.333333a42.666667 42.666667 0 0 1 12.501333-30.165333L579.669333 384l-183.168-183.168a42.666667 42.666667 0 1 1 60.330667-60.330667l213.333333 213.333334a42.666667 42.666667 0 0 1 0 60.330666l-213.333333 213.333334A42.666667 42.666667 0 0 1 384 597.333333z"  horiz-adv-x="1024" />
      
      <glyph glyph-name="line-clone-01" unicode="&#59086;" d="M768 810.666667h-304a42.666667 42.666667 0 0 1 0-85.333334H768q35.328 0 60.330667-25.002666T853.333333 640v-304a42.666667 42.666667 0 1 1 85.333334 0V640q0 70.698667-50.005334 120.661333Q838.698667 810.666667 768 810.666667z m-29.952-812.714667q40.618667 40.618667 40.618667 98.048V512q0 57.429333-40.618667 98.048T640 650.666667H224q-57.429333 0-98.048-40.618667T85.333333 512v-416q0-57.429333 40.618667-98.048T224-42.666667H640q57.429333 0 98.048 40.618667zM693.333333 512v-416q0-22.101333-15.616-37.717333T640 42.666667H224q-22.101333 0-37.717333 15.616T170.666667 96V512q0 22.101333 15.616 37.717333t37.717333 15.616H640q22.101333 0 37.717333-15.616T693.333333 512zM469.333333 431.36c0 20.949333-19.114667 37.930667-42.666666 37.930667s-42.666667-16.981333-42.666667-37.930667V341.333333H293.930667C272.981333 341.333333 256 322.218667 256 298.666667s16.981333-42.666667 37.930667-42.666667H384v-90.069333c0-20.949333 19.114667-37.973333 42.666667-37.973334s42.666667 17.024 42.666666 37.973334V256h90.069334c20.949333 0 37.930667 19.114667 37.930666 42.666667s-16.981333 42.666667-37.930666 42.666666H469.333333v90.069334z"  horiz-adv-x="1024" />
      
      <glyph glyph-name="line-arrow-up" unicode="&#59087;" d="M836.437333 468.992l-297.6 283.477333a38.144 38.144 0 0 1-53.674666 0l-297.6-283.477333a38.144 38.144 0 1 1 52.608-55.210667l233.685333 222.549334V42.666667a38.144 38.144 0 0 1 76.288 0V636.330667l233.685333-222.549334a38.144 38.144 0 1 1 52.608 55.210667z"  horiz-adv-x="1024" />
      
      <glyph glyph-name="line-arrow-rotate-right-02" unicode="&#59088;" d="M822.698667 712.362667l-55.637334-57.344Q661.504 768 501.674667 768 346.453333 768 236.970667 655.061333 128 542.677333 128 384t108.970667-271.061333Q346.496 0 501.674667 0q123.050667 0 221.738666 74.922667 96.298667 73.045333 133.418667 189.44a42.666667 42.666667 0 0 1-81.322667 25.941333Q710.229333 85.333333 501.674667 85.333333q-119.04 0-203.434667 87.04Q213.333333 259.882667 213.333333 384t84.906667 211.626667Q382.634667 682.666667 501.674667 682.666667q124.032 0 205.866666-89.088l-50.346666-51.882667A42.666667 42.666667 0 0 1 687.829333 469.333333H853.333333a42.666667 42.666667 0 0 1 42.666667 42.666667V682.666667a42.666667 42.666667 0 0 1-73.301333 29.696z"  horiz-adv-x="1024" />
      
      <glyph glyph-name="line-file-shield-01" unicode="&#59089;" d="M802.133333 512V640q0 45.952-32.512 78.464Q737.152 750.933333 691.2 750.933333H332.8q-45.952 0-78.421333-32.469333Q221.866667 685.952 221.866667 640v-512q0-45.952 32.512-78.421333 32.469333-32.512 78.421333-32.512h102.4a42.666667 42.666667 0 1 0 0-85.333334H332.8q-81.28 0-138.794667 57.472Q136.533333 46.72 136.533333 128V640q0 81.28 57.472 138.794667Q251.52 836.266667 332.8 836.266667h358.4q81.28 0 138.794667-57.472Q887.466667 721.28 887.466667 640v-128a42.666667 42.666667 0 1 0-85.333334 0z m-256-385.92V268.8a42.666667 42.666667 0 0 0 23.594667 38.186667l59.306667 29.653333q87.765333 43.861333 175.530666 0l59.306667-29.653333a42.666667 42.666667 0 0 0 23.594667-38.186667v-142.72q0-52.352-46.08-96.938667-28.202667-27.306667-101.802667-73.728a42.666667 42.666667 0 0 0-45.568 0q-147.882667 93.397333-147.882667 170.666667z m85.333334 0q0-26.88 85.333333-83.754667 85.333333 56.874667 85.333333 83.754667v116.352l-35.712 17.877333q-49.621333 24.789333-99.242666 0l-35.712-17.877333v-116.352z"  horiz-adv-x="1024" />
      
      <glyph glyph-name="line-camera-01" unicode="&#59090;" d="M342.016 779.264a42.666667 42.666667 0 0 0 36.864 21.162667h266.24a42.666667 42.666667 0 0 0 36.864-21.162667l59.306667-101.717333H819.2a145.066667 145.066667 0 0 0 145.066667-145.066667v-419.84a145.066667 145.066667 0 0 0-145.066667-145.066667H204.8a145.066667 145.066667 0 0 0-145.066667 145.066667V532.48a145.066667 145.066667 0 0 0 145.066667 145.066667h77.909333l59.306667 101.717333zM403.370667 715.093333l-59.306667-101.717333a42.666667 42.666667 0 0 0-36.864-21.162667H204.8a59.733333 59.733333 0 0 1-59.733333-59.733333v-419.84a59.733333 59.733333 0 0 1 59.733333-59.733333h614.4a59.733333 59.733333 0 0 1 59.733333 59.733333V532.48a59.733333 59.733333 0 0 1-59.733333 59.733333h-102.4a42.666667 42.666667 0 0 0-36.864 21.162667l-59.306667 101.717333H403.370667z m108.629333-256a110.933333 110.933333 0 1 1 0-221.866666 110.933333 110.933333 0 0 1 0 221.866666z m-196.266667-110.933333a196.266667 196.266667 0 1 0 392.533334 0 196.266667 196.266667 0 0 0-392.533334 0z"  horiz-adv-x="1024" />
      
      <glyph glyph-name="line-eye-closed" unicode="&#59091;" d="M187.733333 704a42.666667 42.666667 0 0 1 12.501334-30.165333l38.741333-38.741334q-130.944-93.525333-177.28-241.578666l-4.224-13.397334 4.565333-13.226666q106.88-310.613333 449.28-316.245334 137.728-2.218667 247.210667 64.853334l81.706667-81.664a42.666667 42.666667 0 0 1 60.330666 60.330666l-640 640A42.666667 42.666667 0 0 1 187.733333 704z m268.501334 14.08q27.306667 2.986667 55.765333 2.986667 347.733333 0 450.304-327.552l4.138667-13.141334-4.352-13.056q-16.085333-48.512-54.528-106.069333a42.666667 42.666667 0 1 0-70.997334 47.36q26.794667 40.106667 39.893334 72.96Q789.76 635.733333 512 635.733333q-23.850667 0-46.634667-2.474666a42.666667 42.666667 0 0 0-9.130666 84.864z m-308.693334-336.810667q41.557333 117.930667 152.746667 192.512L399.530667 474.453333q-32.597333-38.826667-32.597334-89.898666 0-59.306667 42.922667-101.034667 42.410667-41.301333 102.144-41.301333 50.602667 0 89.514667 30.293333l94.506666-94.549333q-81.749333-43.690667-183.338666-42.026667-274.986667 4.48-365.141334 245.333333z m304.725334 3.328q0 15.957333 8.234666 28.970667l79.445334-79.445333q-12.672-6.528-27.946667-6.528-25.088 0-42.666667 17.109333-17.066667 16.64-17.066666 39.893333z"  horiz-adv-x="1024" />
      
      <glyph glyph-name="line-check-contained" unicode="&#59092;" d="M938.666667 384q0-176.725333-124.970667-301.696Q688.725333-42.666667 512-42.666667q-176.725333 0-301.696 124.970667Q85.333333 207.274667 85.333333 384q0 176.725333 124.970667 301.696Q335.274667 810.666667 512 810.666667q176.725333 0 301.696-124.970667Q938.666667 560.725333 938.666667 384z m-85.333334 0q0 141.397333-99.968 241.365333T512 725.333333Q370.602667 725.333333 270.634667 625.365333T170.666667 384q0-141.397333 99.968-241.365333T512 42.666667q141.397333 0 241.365333 99.968T853.333333 384z m-136.832 78.336a42.666667 42.666667 0 0 0-12.501333-30.165333l-231.168-211.498667a42.666667 42.666667 0 0 0-60.330667 0l-88.832 90.453333A42.666667 42.666667 0 0 0 384 371.541333l58.666667-60.330666 200.96 181.333333a42.666667 42.666667 0 0 0 72.874666-30.165333z"  horiz-adv-x="1024" />
      
      <glyph glyph-name="line-check-03" unicode="&#59094;" d="M759.466667 537.6a42.666667 42.666667 0 0 0-12.373334-30.08l-305.493333-307.2-0.170667-0.170667a42.666667 42.666667 0 0 0-60.373333 0.170667l-104.106667 104.704a42.666667 42.666667 0 0 0 60.501334 60.16l73.856-74.24 275.2 276.736a42.666667 42.666667 0 0 0 72.96-30.08z"  horiz-adv-x="1024" />
      
      <glyph glyph-name="line-git-merge-01" unicode="&#59095;" d="M314.069333 854.485333q59.861333 0 102.229334-42.325333 42.325333-42.325333 42.325333-102.229333 0-59.861333-42.325333-102.229334-25.941333-25.898667-58.410667-35.925333 1.024-120.832 86.741333-206.549333 73.386667-73.386667 172.586667-84.693334 10.24 31.274667 35.328 56.32 42.325333 42.368 102.186667 42.368 59.904 0 102.229333-42.325333 42.325333-42.368 42.325333-102.229333t-42.325333-102.229334q-42.325333-42.325333-102.229333-42.325333-59.861333 0-102.186667 42.325333-26.581333 26.581333-36.48 60.074667-134.656 11.989333-233.386667 110.72-13.184 13.184-24.746666 26.965333v-146.901333q32.426667-10.026667 58.368-35.968 42.325333-42.325333 42.325333-102.186667 0-59.904-42.325333-102.229333-42.368-42.325333-102.229334-42.325333t-102.229333 42.325333q-42.325333 42.325333-42.325333 102.229333 0 59.861333 42.325333 102.186667 25.941333 25.941333 58.410667 35.968V571.776q-32.469333 10.026667-58.410667 35.925333-42.325333 42.368-42.325333 102.229334 0 59.904 42.325333 102.229333 42.368 42.325333 102.229333 42.325333z m0-87.637333q-23.594667 0-40.234666-16.64-16.64-16.682667-16.64-40.277333 0-23.552 16.64-40.234667 16.64-16.64 40.234666-16.64 23.552 0 40.234667 16.64 16.64 16.64 16.64 40.234667 0 23.594667-16.64 40.234666-16.64 16.682667-40.234667 16.682667z m440.661334-475.306667q-23.552 0-40.234667-16.64-16.64-16.64-16.64-40.234666 0-23.552 16.64-40.234667 16.64-16.64 40.234667-16.64 23.594667 0 40.277333 16.64 16.64 16.64 16.64 40.234667 0 23.594667-16.64 40.234666-16.682667 16.64-40.277333 16.64z m-383.744-246.4q0 23.552-16.64 40.234667-16.725333 16.64-40.277334 16.64-23.594667 0-40.234666-16.64-16.64-16.64-16.64-40.234667 0-23.594667 16.64-40.234666 16.64-16.682667 40.234666-16.682667 23.552 0 40.234667 16.64 16.64 16.682667 16.64 40.277333z"  horiz-adv-x="1024" />
      
      <glyph glyph-name="line-computer" unicode="&#59096;" d="M59.733333 460.8v-179.2c0-40.106667 14.165333-74.24 42.496-102.570667A139.776 139.776 0 0 1 204.8 136.533333H469.333333v-59.733333c0-2.858667 0.298667-5.717333 0.853334-8.533333H358.4a42.666667 42.666667 0 1 1 0-85.333334h307.2a42.666667 42.666667 0 1 1 0 85.333334h-111.786667c0.554667 2.816 0.853333 5.674667 0.853334 8.533333v59.733333h264.533333c40.064 0 74.24 14.165333 102.570667 42.496A139.776 139.776 0 0 1 964.266667 281.6v179.2h-85.333334v-179.2c0-16.512-5.845333-30.592-17.493333-42.24a57.6 57.6 0 0 0-42.24-17.493333H204.8c-39.808 0-59.733333 19.882667-59.733333 59.733333v179.2h-85.333334zM102.229333 742.570667A139.776 139.776 0 0 1 59.733333 640v-179.2h85.333334V640c0 16.469333 5.845333 30.549333 17.493333 42.24 11.648 11.648 25.728 17.493333 42.24 17.493333h614.4c16.512 0 30.549333-5.845333 42.24-17.493333 11.648-11.690667 17.493333-25.728 17.493333-42.24v-179.2h85.333334V640c0 40.064-14.165333 74.24-42.496 102.570667A139.776 139.776 0 0 1 819.2 785.066667H204.8c-40.064 0-74.24-14.165333-102.570667-42.496z"  horiz-adv-x="1024" />
      
      <glyph glyph-name="line-copy-right" unicode="&#59097;" d="M464 810.666667H768q70.698667 0 120.661333-50.005334Q938.666667 710.698667 938.666667 640v-304a42.666667 42.666667 0 1 0-85.333334 0V640q0 35.328-25.002666 60.330667T768 725.333333h-304a42.666667 42.666667 0 1 0 0 85.333334z m314.666667-714.666667q0-57.429333-40.618667-98.048T640-42.666667H224q-57.429333 0-98.048 40.618667T85.333333 96V512q0 57.429333 40.618667 98.048T224 650.666667H640q57.429333 0 98.048-40.618667T778.666667 512v-416z m-85.333334 0V512q0 22.101333-15.616 37.717333T640 565.333333H224q-22.101333 0-37.717333-15.616T170.666667 512v-416q0-22.101333 15.616-37.717333T224 42.666667H640q22.101333 0 37.717333 15.616t15.616 37.717333z"  horiz-adv-x="1024" />
      
      <glyph glyph-name="line-compare" unicode="&#59098;" d="M204.8 810.666667A119.466667 119.466667 0 0 1 85.333333 691.2v-460.8a119.466667 119.466667 0 0 1 119.466667-119.466667h226.133333v-34.133333a119.466667 119.466667 0 0 1 119.466667-119.466667h268.8a119.466667 119.466667 0 0 1 119.466667 119.466667V537.6a119.466667 119.466667 0 0 1-119.466667 119.466667h-226.133333v34.133333A119.466667 119.466667 0 0 1 473.6 810.666667H204.8z m302.933333-161.450667A119.509333 119.509333 0 0 1 430.933333 537.6v-341.333333H204.8a34.133333 34.133333 0 0 0-34.133333 34.133333V691.2a34.133333 34.133333 0 0 0 34.133333 34.133333h268.8a34.133333 34.133333 0 0 0 34.133333-34.133333v-41.984z m8.533334-111.616a34.133333 34.133333 0 0 0 34.133333 34.133333h268.8a34.133333 34.133333 0 0 0 34.133333-34.133333v-460.8a34.133333 34.133333 0 0 0-34.133333-34.133333h-268.8a34.133333 34.133333 0 0 0-34.133333 34.133333V537.6z m-221.866667 0V384a25.6 25.6 0 0 1 45.226667-16.384l64 76.8a25.6 25.6 0 0 1 0 32.768l-64 76.8A25.6 25.6 0 0 1 294.4 537.6zM742.4 384v-153.6a25.6 25.6 0 0 0-45.226667-16.384l-64 76.8a25.6 25.6 0 0 0-0.042666 32.768l64 76.8A25.6 25.6 0 0 0 742.4 384z"  horiz-adv-x="1024" />
      
      <glyph glyph-name="line-download-02" unicode="&#59099;" d="M512.042667 810.666667a42.666667 42.666667 0 0 1-42.666667-42.666667v-406.656L347.178667 483.328a42.666667 42.666667 0 1 1-60.330667-60.373333l194.986667-194.688a42.666667 42.666667 0 0 1 60.373333 0l195.029333 194.688a42.666667 42.666667 0 0 1-60.288 60.373333l-122.24-122.026667V768a42.666667 42.666667 0 0 1-42.666666 42.666667zM170.666667 289.962667a42.666667 42.666667 0 0 1-42.666667-42.666667v-157.354667q0-54.314667 36.693333-92.970666Q202.325333-42.666667 256-42.666667h512q53.674667 0 91.306667 39.637334 36.693333 38.698667 36.693333 92.970666v157.354667a42.666667 42.666667 0 1 1-85.333333 0v-157.354667q0-20.224-13.269334-34.218666Q785.024 42.666667 768 42.666667H256q-17.024 0-29.397333 13.056Q213.333333 69.717333 213.333333 89.941333v157.354667a42.666667 42.666667 0 0 1-42.666666 42.666667z"  horiz-adv-x="1024" />
      
      <glyph glyph-name="line-edit-contained" unicode="&#59100;" d="M337.962667 369.578667q5.12 25.088 23.210666 43.221333l355.712 355.882667q24.874667 24.917333 60.032 24.917333 35.2 0 60.074667-24.832l75.349333-75.264q24.917333-24.874667 24.917334-60.074667t-24.874667-60.074666l-355.669333-355.882667q-18.133333-18.176-43.306667-23.253333l-158.890667-32a41.258667 41.258667 0 0 0-48.64 48.64l32.085334 158.72z m530.048-35.84v-175.744q0-71.338667-50.432-121.813334-50.474667-50.474667-121.856-50.474666H259.029333q-71.381333 0-121.856 50.474666-50.432 50.474667-50.432 121.813334V594.773333q0 71.338667 50.432 121.813334 50.474667 50.474667 121.856 50.474666h218.325334v-0.085333a41.216 41.216 0 1 0 0-82.432v-0.042667H259.029333q-37.205333 0-63.488-26.282666t-26.282666-63.445334v-436.736q0-37.12 26.282666-63.445333 26.282667-26.282667 63.488-26.282667h436.693334q37.162667 0 63.488 26.282667 26.282667 26.282667 26.282666 63.445333v175.701334h0.042667a41.216 41.216 0 1 0 82.432 0h0.042667z m-449.109334 19.456l-19.797333-97.792 98.005333 19.754666q0.682667 0.128 1.194667 0.64l355.712 355.882667q0.725333 0.725333 0.725333 1.706667t-0.725333 1.706666L778.666667 710.357333q-1.706667 1.706667-3.413334 0l-355.712-355.925333q-0.512-0.512-0.64-1.237333z"  horiz-adv-x="1024" />
      
      <glyph glyph-name="line-archive-02" unicode="&#59101;" d="M266.24 292.565333a42.666667 42.666667 0 1 0 0 85.333334H320a42.666667 42.666667 0 0 0 31.146667-13.482667l51.328-54.784h219.050666l51.328 54.784a42.666667 42.666667 0 0 0 31.146667 13.482667h53.76a42.666667 42.666667 0 0 0 0-85.333334h-35.285333l-51.370667-54.784a42.666667 42.666667 0 0 0-31.104-13.482666H384a42.666667 42.666667 0 0 0-31.146667 13.482666l-51.328 54.784H266.24zM87.978667 349.994667l120.618666 326.826666C231.04 737.621333 274.346667 768 338.517333 768h346.965334c64.170667 0 107.477333-30.378667 129.92-91.178667l120.618666-326.826666c1.749333-4.693333 2.645333-9.728 2.645334-14.762667h-85.333334l-118.016 312.064C726.613333 670.890667 710.016 682.666667 685.482667 682.666667H338.517333c-24.533333 0-41.130667-11.776-49.834666-35.413334L170.666667 335.274667H85.333333a42.666667 42.666667 0 0 0 2.645334 14.762666zM938.666667 140.202667v195.029333h-85.333334v-195.029333c0-36.565333-17.792-54.869333-53.333333-54.869334H224c-14.592 0-27.093333 5.290667-37.461333 15.829334A53.546667 53.546667 0 0 0 170.666667 140.202667v195.029333H85.333333v-195.029333c0-38.613333 13.44-71.552 40.362667-98.901334A132.864 132.864 0 0 1 224 0h576c38.4 0 71.168 13.781333 98.304 41.301333 26.88 27.306667 40.362667 60.288 40.362667 98.901334z"  horiz-adv-x="1024" />
      
      <glyph glyph-name="line-image-up-01" unicode="&#59102;" d="M926.08 704.981333l-93.824 93.269334a42.666667 42.666667 0 0 1-60.16 0l-98.176-97.706667a42.666667 42.666667 0 1 1 60.16-60.501333l25.429333 25.301333v-137.344a42.666667 42.666667 0 1 1 85.333334 0v137.386667l21.034666-20.906667a42.666667 42.666667 0 1 1 60.202667 60.501333z m-582.058667-38.314666c76.416 0 114.645333-38.229333 114.645334-114.688 0-76.416-38.229333-114.645333-114.688-114.645334-76.416 0-114.645333 38.229333-114.645334 114.688 0 76.416 38.229333 114.645333 114.688 114.645334z m0-85.333334c-19.584 0-29.354667-9.813333-29.354666-29.354666 0-19.541333 9.813333-29.312 29.354666-29.312 19.541333 0 29.312 9.813333 29.312 29.354666 0 19.541333-9.813333 29.312-29.354666 29.312zM584.021333 725.333333H272C204.458667 725.333333 170.666667 691.541333 170.666667 624v-480c0-61.909333 28.373333-95.488 85.162666-100.608l88.149334 82.986667 126.293333 1.621333-90.666667-85.333333h372.394667C819.541333 42.666667 853.333333 76.458667 853.333333 144h85.333334c0-51.541333-18.218667-95.573333-54.656-132.010667-36.48-36.437333-80.469333-54.656-132.010667-54.656H272c-51.541333 0-95.573333 18.218667-132.010667 54.656C103.552 48.469333 85.333333 92.458667 85.333333 144V624c0 51.541333 18.218667 95.573333 54.656 132.010667C176.469333 792.448 220.458667 810.666667 272 810.666667h312.021333a42.666667 42.666667 0 1 0 0-85.333334zM710.186667 414.165333a42.666667 42.666667 0 0 1-59.434667 0.896l-306.773333-288.682666 126.293333 1.621333 208.810667 196.565333 162.688-162.688c3.413333-3.413333 7.296-6.186667 11.562666-8.234666v-9.642667h85.333334V384a42.666667 42.666667 0 1 1-85.333334 0v-112.981333l-143.146666 143.146666z"  horiz-adv-x="1024" />
      
      <glyph glyph-name="line-layers-05" unicode="&#59103;" d="M512 223.018667l-390.144 200.021333a42.666667 42.666667 0 1 1-38.912-75.946667l409.6-209.962666a42.666667 42.666667 0 0 1 38.912 0l409.6 209.92a42.666667 42.666667 0 1 1-38.912 75.946666L512 223.018667z m0-200.704L121.856 222.293333a42.666667 42.666667 0 1 1-38.912-75.946666l409.6-209.92a42.666667 42.666667 0 0 1 38.912 0l409.6 209.92a42.666667 42.666667 0 1 1-38.912 75.946666L512 22.314667zM959.573333 564.181333a42.666667 42.666667 0 0 0-18.517333-18.517333l-409.6-209.92a42.666667 42.666667 0 0 0-38.912 0l-409.6 209.92a42.666667 42.666667 0 0 0-23.210667 37.888l136.192 0.085333L512 421.632l316.074667 162.005333 136.192-0.853333a42.496 42.496 0 0 0-4.693334-18.602667zM492.544 831.573333l-409.6-209.962666a42.666667 42.666667 0 0 1-23.210667-38.058667l136.192 0.085333L512 745.642667l316.074667-162.005334 136.192-0.853333a42.666667 42.666667 0 0 1-23.210667 38.826667l-409.6 209.92a42.666667 42.666667 0 0 1-38.912 0z"  horiz-adv-x="1024" />
      
      <glyph glyph-name="line-file-check-01" unicode="&#59104;" d="M738.133333 409.6V691.2q0 24.746667-17.493333 42.24-17.493333 17.493333-42.24 17.493333H217.6q-59.733333 0-59.733333-59.733333v-614.4q0-59.733333 59.733333-59.733333h204.8a42.666667 42.666667 0 1 0 0-85.333334H217.6q-60.117333 0-102.570667 42.496Q72.533333 16.725333 72.533333 76.8V691.2q0 60.074667 42.496 102.570667T217.6 836.266667h460.8q60.117333 0 102.570667-42.496 42.496-42.496 42.496-102.570667v-281.6a42.666667 42.666667 0 1 0-85.333334 0z m213.333334-128a42.666667 42.666667 0 0 0-11.477334-29.098667l-238.933333-256a42.666667 42.666667 0 0 0-61.354667-1.066666l-93.866666 93.866666a42.666667 42.666667 0 1 0 60.330666 60.330667l0.085334-0.042667 62.549333-62.592 208.768 223.658667 0.042667 0.042667a42.666667 42.666667 0 0 0 73.856-29.098667z"  horiz-adv-x="1024" />
      
      <glyph glyph-name="line-arrow-down" unicode="&#59105;" d="M836.437333 299.008l-297.6-283.477333a38.144 38.144 0 0 0-53.674666 0l-297.6 283.477333a38.144 38.144 0 1 0 52.608 55.210667l233.685333-222.549334V725.333333a38.144 38.144 0 0 0 76.288 0v-593.664l233.685333 222.549334a38.144 38.144 0 1 0 52.608-55.210667z"  horiz-adv-x="1024" />
      
      <glyph glyph-name="line-image-generation-02" unicode="&#59106;" d="M812.885333 593.92v-227.370667a42.666667 42.666667 0 1 1 85.333334 0V593.92q0 74.197333-52.48 126.634667-52.48 52.48-126.634667 52.48H264.405333q-74.154667 0-126.634666-52.48Q85.333333 668.074667 85.333333 593.92v-454.698667q0-74.197333 52.48-126.634666 52.394667-52.394667 126.506667-52.48h341.12a42.666667 42.666667 0 1 1 0 85.333333H372.053333l278.058667 261.76 38.954667-38.784a42.666667 42.666667 0 0 1 60.16 60.501333L681.045333 396.8a42.666667 42.666667 0 0 1-59.306666 0.853333L248.32 46.208Q170.666667 53.888 170.666667 139.221333V593.92q0 38.826667 27.477333 66.304 27.434667 27.434667 66.261333 27.434667h454.698667q93.781333 0 93.781333-93.738667z m-369.408-68.224q0 110.890667-110.848 110.890667-45.952 0-78.421333-32.469334-32.426667-32.469333-32.426667-78.421333 0-45.909333 32.426667-78.378667 32.469333-32.469333 78.421333-32.469333 45.909333 0 78.378667 32.469333 32.469333 32.469333 32.469333 78.378667z m-136.405333 0q0 25.557333 25.557333 25.557333 25.514667 0 25.514667-25.557333 0-25.514667-25.514667-25.514667-25.557333 0-25.557333 25.514667z m464.213333-427.221333q-14.890667 0-28.416 6.101333a42.666667 42.666667 0 0 1-56.405333-56.448q18.688-41.429333 56.917333-66.133333 38.186667-24.661333 83.669334-24.661334 63.914667 0 109.098666 45.226667Q981.333333 47.658667 981.333333 111.573333q0 45.482667-24.661333 83.669334-24.704 38.229333-66.133333 56.917333a42.666667 42.666667 0 0 1-56.448-56.405333q6.101333-13.525333 6.101333-28.373334 0-28.586667-20.181333-48.768t-48.768-20.181333z"  horiz-adv-x="1024" />
      
      <glyph glyph-name="line-image-generation-01" unicode="&#59107;" d="M812.842667 593.92v-227.328a42.666667 42.666667 0 1 1 85.333333 0V593.92q0 74.197333-52.437333 126.634667-52.48 52.48-126.634667 52.48H264.405333q-74.154667 0-126.634666-52.48Q85.333333 668.074667 85.333333 593.92v-454.698667q0-74.197333 52.48-126.634666 52.394667-52.394667 126.464-52.48h341.162667a42.666667 42.666667 0 1 1 0 85.333333H372.053333l278.058667 261.76 38.954667-38.784a42.666667 42.666667 0 0 1 60.16 60.501333L681.045333 396.8a42.666667 42.666667 0 0 1-59.306666 0.853333L248.32 46.250667Q170.666667 53.930667 170.666667 139.221333V593.92q0 38.826667 27.477333 66.304 27.434667 27.434667 66.261333 27.434667h454.698667q93.738667 0 93.738667-93.738667z m-369.365334-68.224q0 110.890667-110.848 110.890667-45.952 0-78.421333-32.469334-32.426667-32.469333-32.426667-78.421333 0-45.909333 32.426667-78.378667 32.469333-32.469333 78.421333-32.469333 45.909333 0 78.378667 32.469333 32.469333 32.469333 32.469333 78.378667z m-136.405333 0q0 25.557333 25.557333 25.557333 25.514667 0 25.514667-25.557333 0-25.514667-25.514667-25.514667-25.557333 0-25.557333 25.514667z m478.464-372.565333l-75.008-27.776a42.666667 42.666667 0 0 1 0-80.042667l75.008-27.733333 27.776-75.050667a42.666667 42.666667 0 0 1 80.042667 0l27.733333 75.050667 75.050667 27.733333a42.666667 42.666667 0 0 1 0 80.042667l-75.050667 27.733333-27.733333 75.050667a42.666667 42.666667 0 0 1-80.042667 0l-27.733333-75.008z"  horiz-adv-x="1024" />
      
      <glyph glyph-name="line-invert-02" unicode="&#59108;" d="M59.733333 532.48v-419.84q0-60.074667 42.496-102.570667t102.570667-42.496h614.4q60.074667 0 102.570667 42.496t42.496 102.570667V532.48q0 60.074667-42.496 102.570667T819.2 677.546667h-77.909333l-59.306667 101.717333a42.666667 42.666667 0 0 1-36.864 21.162667H378.88a42.666667 42.666667 0 0 1-36.864-21.162667L282.709333 677.546667H204.8q-60.074667 0-102.570667-42.496T59.733333 532.48z m145.066667-479.573333q-59.733333 0-59.733333 59.733333V532.48q0 59.733333 59.733333 59.733333h102.4a42.666667 42.666667 0 0 1 36.864 21.162667l59.306667 101.717333h217.258666l59.306667-101.717333a42.666667 42.666667 0 0 1 36.864-21.162667h102.4q24.746667 0 42.24-17.493333 17.493333-17.493333 17.493333-42.24v-419.84q0-59.733333-59.733333-59.733333H204.8z m300.757333 429.013333a42.666667 42.666667 0 0 0 60.458667 60.16l104.234667-104.704A42.666667 42.666667 0 0 0 640 364.629333H384a42.666667 42.666667 0 1 0 0 85.333334h153.344l-31.786667 31.957333z m-18.901333-254.037333H640a42.666667 42.666667 0 1 1 0 85.333333H384a42.666667 42.666667 0 0 1-30.250667-72.746667l104.234667-104.704a42.666667 42.666667 0 1 1 60.458667 60.16l-31.786667 32z"  horiz-adv-x="1024" />
      
      <glyph glyph-name="line-globe-01" unicode="&#59109;" d="M354.133333 672.64C325.12 606.506667 306.645333 520.618667 302.293333 426.666667h85.461334c4.266667 83.968 20.906667 157.781333 44.544 211.754666 13.781333 31.573333 29.098667 54.357333 43.946666 68.693334 14.677333 14.208 26.666667 18.218667 35.754667 18.218666 9.088 0 21.077333-4.010667 35.754667-18.176 14.848-14.378667 30.165333-37.205333 43.946666-68.693333 23.594667-54.016 40.277333-127.829333 44.544-211.797333h85.418667c-4.309333 93.952-22.826667 179.797333-51.797333 245.973333a421.461333 421.461333 0 0 1-8.533334 18.389333A341.632 341.632 0 0 0 850.645333 426.666667h85.888C915.157333 642.261333 733.226667 810.666667 512 810.666667 290.773333 810.666667 108.8 642.261333 87.466667 426.666667h85.845333A341.632 341.632 0 0 0 362.666667 691.029333c-2.986667-5.973333-5.802667-12.117333-8.533334-18.389333zM87.466667 341.333333c21.376-215.594667 203.306667-384 424.533333-384s403.157333 168.405333 424.533333 384h-85.845333a341.632 341.632 0 0 0-189.397333-264.362666c2.986667 5.973333 5.845333 12.117333 8.576 18.389333 28.970667 66.133333 47.488 152.021333 51.84 245.973333h-85.461334c-4.266667-84.010667-20.906667-157.781333-44.544-211.754666-13.781333-31.573333-29.098667-54.357333-43.946666-68.693334-14.677333-14.208-26.666667-18.218667-35.754667-18.218666-9.088 0-21.077333 4.010667-35.754667 18.176-14.848 14.378667-30.165333 37.205333-43.946666 68.693333-23.594667 54.016-40.277333 127.786667-44.544 211.797333H302.293333c4.352-93.952 22.869333-179.797333 51.84-245.973333 2.730667-6.272 5.546667-12.373333 8.533334-18.389333A341.632 341.632 0 0 0 173.312 341.333333H87.424zM302.293333 426.666667H87.466667a431.701333 431.701333 0 0 1 0-85.333334h849.152a431.189333 431.189333 0 0 1 0 85.333334H302.293333z"  horiz-adv-x="1024" />
      
      <glyph glyph-name="line-message-circle-02" unicode="&#59110;" d="M938.24 6.058667a42.709333 42.709333 0 0 0-52.565333-47.402667l-180.138667 45.013333A418.56 418.56 0 0 0 512-42.666667c-117.802667 0-218.368 41.642667-301.653333 124.970667C126.976 165.632 85.333333 266.197333 85.333333 384h85.333334c0-94.293333 33.322667-174.72 99.968-241.365333C337.28 75.989333 417.706667 42.666667 511.957333 42.666667c59.690667 0 115.370667 14.506667 167.04 43.605333a42.666667 42.666667 0 0 0 31.232 4.181333l134.570667-33.621333-23.722667 166.016a42.666667 42.666667 0 0 0 3.2 23.296A337.28 337.28 0 0 1 853.333333 384h85.333334a421.546667 421.546667 0 0 0-31.402667-160.853333l31.018667-217.088zM813.653333 685.696c83.285333-83.328 124.928-183.893333 124.928-301.696h-85.333333c0 94.293333-33.28 174.72-99.968 241.365333C686.634667 692.010667 606.208 725.333333 512 725.333333c-94.250667 0-174.677333-33.322667-241.322667-99.968C203.946667 558.72 170.666667 478.250667 170.666667 384H85.333333c0 117.802667 41.642667 218.368 124.970667 301.696C293.546667 769.024 394.154667 810.666667 511.957333 810.666667s218.368-41.642667 301.653334-124.970667zM362.666667 380.373333V384a42.666667 42.666667 0 1 1-85.333334 0v-3.626667a42.666667 42.666667 0 1 1 85.333334 0zM554.666667 380.373333V384a42.666667 42.666667 0 1 1-85.333334 0v-3.626667a42.666667 42.666667 0 1 1 85.333334 0zM746.666667 380.373333V384a42.666667 42.666667 0 1 1-85.333334 0v-3.626667a42.666667 42.666667 0 1 1 85.333334 0z"  horiz-adv-x="1024" />
      
      <glyph glyph-name="line-deepthink-01" unicode="&#59111;" d="M510.976 679.594667L439.210667 625.066667c-29.482667-24.32-58.88-50.944-87.637334-79.573334a1261.781333 1261.781333 0 0 1-80.213333-87.637333l-54.613333-71.424 54.613333-71.381333a1261.653333 1261.653333 0 0 1 80.213333-87.637334c28.458667-28.373333 57.6-54.784 86.826667-78.933333l70.4-53.717333c45.482667-31.786667 90.197333-57.557333 132.138667-76.16 45.056-20.053333 89.045333-32.853333 128.682666-34.773334 39.594667-1.962667 79.744 6.826667 109.056 36.096 51.626667 51.370667 45.994667 123.605333 15.402667 201.728a42.666667 42.666667 0 0 1-79.445333-31.146666c27.52-70.314667 17.322667-96.725333 3.84-110.122667-6.4-6.4-19.157333-12.586667-44.629334-11.349333-25.472 1.28-58.794667 9.984-98.261333 27.52a687.104 687.104 0 0 0-99.072 55.381333c15.232 13.866667 30.634667 28.501333 46.08 43.946667a42.666667 42.666667 0 0 1-60.202667 60.458666c-19.2-19.114667-37.973333-36.736-56.277333-52.906666a1167.146667 1167.146667 0 0 0-94.336 84.48 1160.874667 1160.874667 0 0 0-88.490667 98.56 1162.069333 1162.069333 0 0 0 88.490667 98.56 1163.093333 1163.093333 0 0 0 99.2 88.32c25.898667-20.48 52.053333-43.093333 77.994667-67.754667a42.666667 42.666667 0 1 1 58.752 61.866667 1248.085333 1248.085333 0 0 1-64.981334 57.6 675.84 675.84 0 0 0 92.885334 51.285333c39.424 17.493333 72.746667 26.24 98.218666 27.477333 25.472 1.28 38.272-4.949333 44.629334-11.306666 4.053333-4.010667 12.288-19.2 13.269333-47.317334a182.016 182.016 0 0 0-20.992-88.96 42.666667 42.666667 0 0 1 75.690667-39.381333c23.04 44.202667 32 90.709333 30.592 131.328-1.365333 38.826667-12.629333 79.189333-38.314667 104.789333-29.354667 29.226667-69.461333 38.058667-109.098667 36.096-39.637333-1.962667-83.626667-14.762667-128.682666-34.773333-41.301333-18.346667-85.248-43.562667-129.962667-74.666667z m254.378667-195.413334a42.666667 42.666667 0 0 1-80.042667 0l-16.213333-43.946666-43.904-16.213334a42.666667 42.666667 0 0 1 0-80.042666l43.904-16.213334 16.213333-43.904a42.666667 42.666667 0 0 1 80.042667 0l16.213333 43.904 43.946667 16.213334a42.666667 42.666667 0 0 1 0 80.042666l-43.946667 16.213334-16.213333 43.946666zM510.976 679.594667C462.421333 713.386667 414.72 740.266667 370.346667 758.912c-42.88 18.005333-84.821333 29.269333-122.752 30.336-37.973333 1.066667-76.202667-8.192-104.362667-36.266667-29.354667-29.269333-38.272-69.333333-36.266667-108.928 1.92-39.552 14.805333-83.456 34.901334-128.298666 18.389333-41.130667 43.690667-84.821333 74.88-129.28l54.613333 71.381333c-21.248 32.426667-38.613333 63.701333-51.626667 92.757333-17.578667 39.253333-26.325333 72.405333-27.562666 97.706667-1.28 25.258667 4.949333 37.888 11.264 44.202667 6.144 6.101333 18.176 12.074667 41.813333 11.434666 23.722667-0.682667 54.869333-8.106667 92.032-23.722666 31.573333-13.269333 66.005333-31.829333 101.930667-55.168l71.765333 54.528zM355.925333 2.304c47.36 19.370667 98.901333 50.474667 152.874667 92.458667l-70.4 53.76c-42.112-31.018667-80.725333-53.333333-114.773333-67.242667-67.157333-27.434667-102.997333-18.005333-120.149334-0.896-6.357333 6.314667-12.586667 18.944-11.306666 44.202667 1.28 25.258667 9.984 58.410667 27.562666 97.706666 13.013333 29.013333 30.378667 60.288 51.626667 92.757334l-54.613333 71.381333c-31.189333-44.458667-56.490667-88.192-74.88-129.28-20.096-44.885333-32.981333-88.746667-34.944-128.341333-1.962667-39.552 6.954667-79.658667 36.309333-108.885334 54.272-54.058667 134.741333-49.493333 212.693333-17.621333z"  horiz-adv-x="1024" />
      
      <glyph glyph-name="line-image-x-2" unicode="&#59112;" d="M812.842667 588.928v-227.370667a42.666667 42.666667 0 1 1 85.333333 0V588.928q0 74.154667-52.437333 126.634667Q793.258667 768 719.104 768H264.405333Q190.293333 768 137.813333 715.52 85.333333 663.125333 85.333333 588.970667v-454.698667q0-74.197333 52.48-126.634667 52.394667-52.437333 126.464-52.48h341.162667a42.666667 42.666667 0 1 1 0 85.333334H372.010667l278.058666 261.76 38.954667-38.784a42.666667 42.666667 0 0 1 60.16 60.501333l-68.181333 67.84a42.666667 42.666667 0 0 1-59.306667 0.853333l-373.418667-351.402666Q170.666667 48.896 170.666667 134.229333V588.928q0 38.826667 27.477333 66.261333Q225.578667 682.666667 264.405333 682.666667h454.698667q93.738667 0 93.738667-93.738667z m-369.365334-68.224q0 110.890667-110.848 110.890667-45.952 0-78.421333-32.469334-32.426667-32.469333-32.426667-78.421333 0-45.909333 32.426667-78.378667 32.469333-32.469333 78.421333-32.469333 45.909333 0 78.378667 32.426667 32.469333 32.512 32.469333 78.421333z m-136.405333 0q0 25.557333 25.557333 25.557333 25.514667 0 25.514667-25.557333 0-25.514667-25.514667-25.514667-25.557333 0-25.557333 25.514667zM853.333333 145.664l-55.168 55.168a42.666667 42.666667 0 1 1-60.330666-60.330667L793.002667 85.333333l-55.168-55.168a42.666667 42.666667 0 0 1 60.330666-60.330666L853.333333 25.002667l55.168-55.168a42.666667 42.666667 0 0 1 60.330667 60.330666L913.664 85.333333l55.168 55.168a42.666667 42.666667 0 0 1-60.330667 60.330667L853.333333 145.664z"  horiz-adv-x="1024" />
      
      <glyph glyph-name="line-sort-vertical-01" unicode="&#59113;" d="M635.434667 507.434667L512 630.869333 388.565333 507.434667a42.666667 42.666667 0 0 0-60.330666 60.330666l153.6 153.6a42.666667 42.666667 0 0 0 60.330666 0l153.6-153.6a42.666667 42.666667 0 0 0-60.330666-60.330666zM512 137.130667l-123.434667 123.434666a42.666667 42.666667 0 1 1-60.330666-60.330666l153.6-153.6a42.666667 42.666667 0 0 1 60.330666 0l153.6 153.6a42.666667 42.666667 0 0 1-60.330666 60.330666L512 137.130667z"  horiz-adv-x="1024" />
      
      </font>
</defs>
</svg>
